<svg width="268" height="200" viewBox="0 0 268 200" fill="none" xmlns="http://www.w3.org/2000/svg">
<path d="M268 175.64H0V175.774H268V175.64Z" fill="#F0F0F0"/>
<path d="M190.28 182.394H184.663V182.528H190.28V182.394Z" fill="#F0F0F0"/>
<path d="M40.2324 178.878H34.8027V179.012H40.2324V178.878Z" fill="#F0F0F0"/>
<path d="M98.6828 182.33H82.249V182.464H98.6828V182.33Z" fill="#F0F0F0"/>
<path d="M125.423 179.269H114.875V179.403H125.423V179.269Z" fill="#F0F0F0"/>
<path d="M230.276 180.121H202.168V180.255H230.276V180.121Z" fill="#F0F0F0"/>
<path d="M65.9058 178.878H42.8203V179.012H65.9058V178.878Z" fill="#F0F0F0"/>
<path d="M242.228 180.186H233.4V180.32H242.228V180.186Z" fill="#F0F0F0"/>
<path d="M127.033 151.735H23.5366C22.7259 151.733 21.9488 151.41 21.376 150.836C20.8032 150.263 20.4814 149.485 20.4814 148.674V3.18769C20.4885 2.38156 20.8133 1.61077 21.3854 1.04274C21.9574 0.474704 22.7305 0.155312 23.5366 0.153931H127.033C127.845 0.153931 128.623 0.476382 129.197 1.05035C129.771 1.62431 130.093 2.40278 130.093 3.21449V148.674C130.093 149.486 129.771 150.264 129.197 150.838C128.623 151.412 127.845 151.735 127.033 151.735ZM23.5366 0.261131C22.7614 0.262551 22.0184 0.57151 21.4707 1.12019C20.923 1.66887 20.6154 2.41245 20.6154 3.18769V148.674C20.6154 149.449 20.923 150.193 21.4707 150.742C22.0184 151.29 22.7614 151.599 23.5366 151.601H127.033C127.809 151.599 128.552 151.291 129.101 150.742C129.649 150.193 129.958 149.45 129.959 148.674V3.18769C129.958 2.41195 129.649 1.66839 129.101 1.11987C128.552 0.571335 127.809 0.262548 127.033 0.261131H23.5366Z" fill="#F0F0F0"/>
<path d="M242.973 151.735H139.472C138.66 151.733 137.883 151.41 137.309 150.837C136.735 150.263 136.413 149.485 136.411 148.674V3.18769C136.42 2.38107 136.746 1.61028 137.319 1.0424C137.891 0.474517 138.665 0.155297 139.472 0.153931H242.973C243.779 0.15672 244.55 0.476736 245.121 1.04462C245.692 1.6125 246.016 2.38249 246.023 3.18769V148.674C246.023 149.484 245.702 150.261 245.131 150.835C244.559 151.408 243.783 151.732 242.973 151.735ZM139.472 0.261131C138.696 0.262548 137.952 0.571335 137.404 1.11987C136.855 1.66839 136.547 2.41195 136.545 3.18769V148.674C136.547 149.45 136.855 150.193 137.404 150.742C137.952 151.291 138.696 151.599 139.472 151.601H242.973C243.749 151.599 244.493 151.291 245.041 150.742C245.59 150.193 245.898 149.45 245.9 148.674V3.18769C245.898 2.41195 245.59 1.66839 245.041 1.11987C244.493 0.571335 243.749 0.262548 242.973 0.261131H139.472Z" fill="#F0F0F0"/>
<path d="M233.621 143.464H218.881V175.64H233.621V143.464Z" fill="#E6E6E6"/>
<path d="M230.823 175.64H233.621V167.675H227.886L230.823 175.64Z" fill="#F5F5F5"/>
<path d="M149.512 143.464H134.772V175.64H149.512V143.464Z" fill="#EBEBEB"/>
<path d="M233.621 143.464H147.067V170.752H233.621V143.464Z" fill="#F5F5F5"/>
<path d="M149.946 146.069V160.793H175.605V146.069H149.946Z" fill="#E6E6E6"/>
<path d="M165.313 148.299H160.264C159.173 148.299 158.093 148.076 157.09 147.645C156.088 147.213 155.184 146.583 154.433 145.791H171.145C170.394 146.583 169.49 147.213 168.487 147.645C167.485 148.076 166.405 148.299 165.313 148.299Z" fill="#F0F0F0"/>
<path d="M177.513 146.069V160.793H203.171V146.069H177.513Z" fill="#E6E6E6"/>
<path d="M193.142 148.299H188.067C186.976 148.298 185.897 148.075 184.896 147.644C183.894 147.212 182.991 146.582 182.24 145.791H198.974C198.223 146.583 197.319 147.213 196.316 147.645C195.314 148.076 194.234 148.299 193.142 148.299Z" fill="#F0F0F0"/>
<path d="M205.085 146.075V160.798H230.743V146.075H205.085Z" fill="#E6E6E6"/>
<path d="M220.714 148.299H215.638C214.547 148.299 213.467 148.076 212.464 147.645C211.462 147.213 210.558 146.583 209.807 145.791H226.541C225.79 146.582 224.887 147.212 223.885 147.644C222.884 148.075 221.805 148.298 220.714 148.299Z" fill="#F0F0F0"/>
<path d="M149.865 175.64H147.067V167.675H152.803L149.865 175.64Z" fill="#F5F5F5"/>
<path d="M165.308 10.3326H33.6982V81.3312H165.308V10.3326Z" fill="#E6E6E6"/>
<path d="M168.024 10.3326H34.9678V81.3312H168.024V10.3326Z" fill="#EBEBEB"/>
<path d="M165.308 81.3312H33.6982V86.391H165.308V81.3312Z" fill="#E6E6E6"/>
<path d="M172.56 81.3312H39.5029V86.391H172.56V81.3312Z" fill="#E6E6E6"/>
<path d="M164.215 77.5202V14.1436L38.7801 14.1436V77.5202H164.215Z" fill="#FAFAFA"/>
<path d="M46.0684 77.5202L68.441 14.1436H79.0002L56.6276 77.5202H46.0684Z" fill="white"/>
<path d="M40.5424 56.0372C40.4656 56.0372 40.392 56.0067 40.3377 55.9524C40.2834 55.8981 40.2529 55.8245 40.2529 55.7478V16.6198C40.2529 16.5425 40.2832 16.4683 40.3374 16.4132C40.3915 16.358 40.4651 16.3264 40.5424 16.325C40.6206 16.325 40.6955 16.356 40.7508 16.4113C40.8061 16.4666 40.8372 16.5416 40.8372 16.6198V55.7478C40.8358 55.825 40.8041 55.8986 40.749 55.9528C40.6938 56.0069 40.6196 56.0372 40.5424 56.0372Z" fill="#E6E6E6"/>
<path d="M58.9004 77.5202L81.2677 14.1436H85.3841L63.0169 77.5202H58.9004Z" fill="white"/>
<path d="M164.215 77.5202V14.1436H163.732V77.5202H164.215Z" fill="#E6E6E6"/>
<path d="M168.926 19.0212H37.3215L36.9678 15.6229H168.577L168.926 19.0212Z" fill="#EBEBEB"/>
<path d="M168.926 21.5027H37.3215L36.9678 18.1099H168.577L168.926 21.5027Z" fill="#EBEBEB"/>
<path d="M168.926 24.4883H37.3215L36.9678 21.0901H168.577L168.926 24.4883Z" fill="#EBEBEB"/>
<path d="M168.926 27.8061H37.3215L36.9678 24.4078H168.577L168.926 27.8061Z" fill="#EBEBEB"/>
<path d="M168.926 31.778H37.3215L36.9678 28.3851H168.577L168.926 31.778Z" fill="#E6E6E6"/>
<path d="M168.926 36.2536H37.3215L36.9678 32.8607H168.577L168.926 36.2536Z" fill="#E6E6E6"/>
<path d="M201.798 40.3539H183.44V61.5044H201.798V40.3539Z" fill="#EBEBEB"/>
<path d="M205.514 40.3539H185.617V61.5044H205.514V40.3539Z" fill="#F5F5F5"/>
<path d="M203.846 59.8375V42.0209H187.283V59.8375H203.846Z" fill="white"/>
<path d="M199.832 54.0595V47.8044C199.832 46.9962 199.177 46.3411 198.369 46.3411H192.762C191.954 46.3411 191.299 46.9962 191.299 47.8044V54.0595C191.299 54.8676 191.954 55.5227 192.762 55.5227H198.369C199.177 55.5227 199.832 54.8676 199.832 54.0595Z" fill="#FAFAFA"/>
<path d="M229.504 31.0543H211.146V52.2049H229.504V31.0543Z" fill="#EBEBEB"/>
<path d="M233.219 31.0543H213.322V52.2049H233.219V31.0543Z" fill="#F5F5F5"/>
<path d="M231.546 50.538V32.7213H214.983V50.538H231.546Z" fill="white"/>
<path d="M227.531 44.7546V38.5048C227.531 37.6966 226.876 37.0415 226.068 37.0415H220.461C219.653 37.0415 218.998 37.6966 218.998 38.5048V44.7546C218.998 45.5627 219.653 46.2178 220.461 46.2178H226.068C226.876 46.2178 227.531 45.5627 227.531 44.7546Z" fill="#FAFAFA"/>
<path d="M139.537 113.073H109.757V175.64H139.537V113.073Z" fill="#E6E6E6"/>
<path d="M136.546 175.64H139.537V167.118H133.399L136.546 175.64Z" fill="#E6E6E6"/>
<path d="M66.2821 113.073H36.502V175.64H66.2821V113.073Z" fill="#E6E6E6"/>
<path d="M139.537 113.073H63.666V170.414H139.537V113.073Z" fill="#F5F5F5"/>
<path d="M136.584 115.614H65.3604V131.34H136.584V115.614Z" fill="#E6E6E6"/>
<path d="M104.965 120.502H98.2384C95.3172 120.502 92.5246 118.562 90.5146 115.142H112.694C110.684 118.562 107.892 120.502 104.965 120.502Z" fill="#F5F5F5"/>
<path d="M66.6623 175.64H63.666V167.118H69.8032L66.6623 175.64Z" fill="#E6E6E6"/>
<path d="M136.584 133.88H65.3604V149.607H136.584V133.88Z" fill="#E6E6E6"/>
<path d="M104.965 138.764H98.2384C95.3172 138.764 92.5246 136.823 90.5146 133.404H112.694C110.684 136.834 107.892 138.764 104.965 138.764Z" fill="#F5F5F5"/>
<path d="M136.584 152.147H65.3604V167.874H136.584V152.147Z" fill="#E6E6E6"/>
<path d="M104.965 157.03H98.2384C95.3172 157.03 92.5246 155.09 90.5146 151.67H112.694C110.684 155.09 107.892 157.03 104.965 157.03Z" fill="#F5F5F5"/>
<path d="M205.037 137.692H205.927C205.927 135.864 205.927 131.217 206.023 120.572C206.179 101.276 206.489 100.102 206.489 100.102L204.372 109.01C203.027 118.873 204.753 128.794 205.037 137.692Z" fill="#E6E6E6"/>
<path d="M201.097 105.708C196.439 101.104 187.343 100.488 178.049 100.102C174.404 99.9518 188.233 106.957 195.163 112.205C200.523 116.278 203.83 117.238 205.615 121.633C205.824 115.93 205.111 109.675 201.097 105.708Z" fill="#E6E6E6"/>
<path d="M206.215 95.696C209.372 89.6981 217.316 84.0487 226.229 81.9101C229.724 81.0685 218.12 92.9838 213.708 100.67C210.283 106.641 205.738 113.652 205.036 118.69C203.969 108.705 203.058 101.694 206.215 95.696Z" fill="#E6E6E6"/>
<path d="M205.824 143.464C204.329 143.463 202.892 142.89 201.806 141.864C200.72 140.838 200.067 139.435 199.981 137.944L199.445 132.653H212.165L211.629 137.944C211.542 139.428 210.894 140.825 209.816 141.85C208.738 142.875 207.311 143.452 205.824 143.464Z" fill="#F0F0F0"/>
<path d="M212.996 134.69H198.626L198.213 128.794H213.408L212.996 134.69Z" fill="#F5F5F5"/>
<path d="M134 199.846C191.396 199.846 237.925 197.13 237.925 193.779C237.925 190.428 191.396 187.711 134 187.711C76.604 187.711 30.0752 190.428 30.0752 193.779C30.0752 197.13 76.604 199.846 134 199.846Z" fill="#F5F5F5"/>
<path d="M131.566 47.2202C132.295 56.3322 142.822 68.1671 146.188 71.7476C146.32 71.8894 146.48 72.0025 146.658 72.0799C146.836 72.1572 147.028 72.1971 147.222 72.1971C147.416 72.1971 147.608 72.1572 147.786 72.0799C147.964 72.0025 148.124 71.8894 148.257 71.7476C151.634 68.1671 162.15 56.3268 162.879 47.2202C162.904 46.9406 162.847 46.6598 162.714 46.4122C162.582 46.1647 162.38 45.9611 162.134 45.8266L147.898 38.1457C147.691 38.0322 147.458 37.9727 147.222 37.9727C146.986 37.9727 146.754 38.0322 146.547 38.1457L132.311 45.8266C132.065 45.9622 131.864 46.1659 131.732 46.4132C131.6 46.6605 131.542 46.9408 131.566 47.2202Z" fill="#407BFF"/>
<path opacity="0.3" d="M146.167 68.2957C141.879 63.4717 135.661 55.3621 134.177 48.9086C134.109 48.6087 134.139 48.295 134.263 48.0135C134.386 47.7319 134.597 47.4971 134.863 47.3435L146.515 40.6435C146.732 40.5199 146.977 40.4548 147.226 40.4548C147.475 40.4548 147.72 40.5199 147.936 40.6435L159.588 47.322C159.862 47.4789 160.076 47.7212 160.198 48.0118C160.32 48.3024 160.343 48.6251 160.264 48.93C158.784 55.3942 152.588 63.4717 148.279 68.3172C148.145 68.4654 147.981 68.5835 147.798 68.6637C147.616 68.7438 147.418 68.7843 147.218 68.7822C147.018 68.7802 146.822 68.7358 146.64 68.6519C146.459 68.568 146.298 68.4466 146.167 68.2957Z" fill="#407BFF"/>
<path opacity="0.3" d="M146.167 68.2957C141.879 63.4717 135.661 55.3621 134.177 48.9086C134.109 48.6087 134.139 48.295 134.263 48.0135C134.386 47.7319 134.597 47.4971 134.863 47.3435L146.515 40.6435C146.732 40.5199 146.977 40.4548 147.226 40.4548C147.475 40.4548 147.72 40.5199 147.936 40.6435L159.588 47.322C159.862 47.4789 160.076 47.7212 160.198 48.0118C160.32 48.3024 160.343 48.6251 160.264 48.93C158.784 55.3942 152.588 63.4717 148.279 68.3172C148.145 68.4654 147.981 68.5835 147.798 68.6637C147.616 68.7438 147.418 68.7843 147.218 68.7822C147.018 68.7802 146.822 68.7358 146.64 68.6519C146.459 68.568 146.298 68.4466 146.167 68.2957Z" fill="white"/>
<path d="M145.637 58.5137C145.531 58.5139 145.426 58.4932 145.329 58.4527C145.231 58.4122 145.143 58.3528 145.068 58.2779L141.097 54.29C140.955 54.1376 140.877 53.936 140.881 53.7277C140.885 53.5194 140.969 53.3207 141.116 53.1734C141.264 53.0261 141.462 52.9417 141.671 52.938C141.879 52.9344 142.081 53.0117 142.233 53.1537L145.637 56.5519L153.677 48.5387C153.828 48.3895 154.032 48.3058 154.245 48.3058C154.457 48.3058 154.661 48.3895 154.813 48.5387C154.888 48.613 154.948 48.7015 154.989 48.799C155.029 48.8965 155.05 49.0012 155.05 49.1069C155.05 49.2126 155.029 49.3172 154.989 49.4148C154.948 49.5123 154.888 49.6008 154.813 49.675L146.237 58.251C146.16 58.3337 146.067 58.3997 145.964 58.4449C145.861 58.4901 145.749 58.5135 145.637 58.5137Z" fill="white"/>
<path d="M179.384 80.1947H105.057C101.505 80.1947 98.625 83.0744 98.625 86.6267V184.125C98.625 187.677 101.505 190.557 105.057 190.557H179.384C182.936 190.557 185.816 187.677 185.816 184.125V86.6267C185.816 83.0744 182.936 80.1947 179.384 80.1947Z" fill="#263238"/>
<path d="M184.39 80.1947H110.063C106.511 80.1947 103.631 83.0744 103.631 86.6267V184.125C103.631 187.677 106.511 190.557 110.063 190.557H184.39C187.942 190.557 190.822 187.677 190.822 184.125V86.6267C190.822 83.0744 187.942 80.1947 184.39 80.1947Z" fill="#407BFF"/>
<path d="M118.865 190.562H111.629C111.407 190.562 111.227 190.742 111.227 190.964V192.128C111.227 192.35 111.407 192.53 111.629 192.53H118.865C119.087 192.53 119.267 192.35 119.267 192.128V190.964C119.267 190.742 119.087 190.562 118.865 190.562Z" fill="#263238"/>
<path d="M182.82 190.562H175.584C175.362 190.562 175.182 190.742 175.182 190.964V192.128C175.182 192.35 175.362 192.53 175.584 192.53H182.82C183.042 192.53 183.222 192.35 183.222 192.128V190.964C183.222 190.742 183.042 190.562 182.82 190.562Z" fill="#263238"/>
<path opacity="0.2" d="M184.39 80.1947H110.063C106.511 80.1947 103.631 83.0744 103.631 86.6267V184.125C103.631 187.677 106.511 190.557 110.063 190.557H184.39C187.942 190.557 190.822 187.677 190.822 184.125V86.6267C190.822 83.0744 187.942 80.1947 184.39 80.1947Z" fill="black"/>
<g style="mix-blend-mode:color-dodge" opacity="0.4">
<path d="M175.632 177.832H118.816C118.166 177.831 117.542 177.572 117.082 177.112C116.622 176.652 116.363 176.028 116.361 175.378V95.3849C116.361 94.7334 116.62 94.1084 117.08 93.6472C117.54 93.1859 118.165 92.9261 118.816 92.9247H175.632C176.284 92.9261 176.908 93.1859 177.368 93.6472C177.829 94.1084 178.087 94.7334 178.087 95.3849V175.378C178.086 176.028 177.827 176.652 177.367 177.112C176.906 177.572 176.283 177.831 175.632 177.832ZM118.816 93.1927C118.236 93.1941 117.679 93.4257 117.27 93.8367C116.86 94.2476 116.629 94.8044 116.629 95.3849V175.378C116.629 175.665 116.686 175.949 116.796 176.214C116.906 176.48 117.067 176.721 117.27 176.924C117.473 177.127 117.714 177.288 117.979 177.398C118.245 177.508 118.529 177.564 118.816 177.564H175.632C176.212 177.564 176.768 177.334 177.179 176.924C177.589 176.514 177.819 175.958 177.819 175.378V95.3849C177.819 94.8044 177.589 94.2476 177.179 93.8367C176.769 93.4257 176.213 93.1941 175.632 93.1927H118.816Z" fill="#E6E6E6"/>
</g>
<path d="M176.886 175.378V95.3796C176.886 94.6899 176.327 94.1307 175.637 94.1307H118.815C118.126 94.1307 117.567 94.6899 117.567 95.3796V175.378C117.567 176.067 118.126 176.626 118.815 176.626H175.637C176.327 176.626 176.886 176.067 176.886 175.378Z" fill="#407BFF"/>
<path opacity="0.1" d="M176.886 175.378V95.3796C176.886 94.6899 176.327 94.1307 175.637 94.1307H118.815C118.126 94.1307 117.567 94.6899 117.567 95.3796V175.378C117.567 176.067 118.126 176.626 118.815 176.626H175.637C176.327 176.626 176.886 176.067 176.886 175.378Z" fill="white"/>
<path d="M192.692 102.948H192.156V107.472H192.692V102.948Z" fill="#407BFF"/>
<path d="M192.692 86.6267H192.156V98.1829H192.692V86.6267Z" fill="#407BFF"/>
<path opacity="0.1" d="M147.225 155.219C157.319 155.219 165.502 147.035 165.502 136.941C165.502 126.847 157.319 118.663 147.225 118.663C137.13 118.663 128.947 126.847 128.947 136.941C128.947 147.035 137.13 155.219 147.225 155.219Z" fill="black"/>
<path d="M147.225 109.798C149.691 109.798 151.69 107.799 151.69 105.333C151.69 102.867 149.691 100.868 147.225 100.868C144.759 100.868 142.76 102.867 142.76 105.333C142.76 107.799 144.759 109.798 147.225 109.798Z" fill="#407BFF"/>
<path opacity="0.6" d="M147.197 109.787C149.663 109.787 151.662 107.788 151.662 105.322C151.662 102.857 149.663 100.858 147.197 100.858C144.731 100.858 142.732 102.857 142.732 105.322C142.732 107.788 144.731 109.787 147.197 109.787Z" fill="white"/>
<path d="M147.224 108.86C146.527 108.86 145.845 108.653 145.265 108.266C144.685 107.878 144.233 107.327 143.966 106.683C143.699 106.038 143.629 105.329 143.765 104.645C143.901 103.961 144.237 103.333 144.73 102.839C145.224 102.346 145.852 102.01 146.536 101.874C147.22 101.738 147.929 101.808 148.574 102.075C149.218 102.342 149.769 102.794 150.157 103.374C150.544 103.954 150.751 104.636 150.751 105.333C150.75 106.268 150.378 107.164 149.716 107.825C149.055 108.487 148.159 108.859 147.224 108.86ZM147.224 102.074C146.58 102.074 145.95 102.265 145.414 102.623C144.878 102.982 144.46 103.491 144.213 104.086C143.967 104.682 143.902 105.337 144.028 105.969C144.154 106.601 144.464 107.182 144.92 107.638C145.376 108.093 145.956 108.404 146.588 108.529C147.221 108.655 147.876 108.591 148.471 108.344C149.067 108.097 149.576 107.68 149.934 107.144C150.292 106.608 150.483 105.978 150.483 105.333C150.482 104.469 150.138 103.641 149.527 103.03C148.916 102.419 148.088 102.076 147.224 102.074Z" fill="#407BFF"/>
<path d="M117.492 104.636H115.503C115.065 104.636 114.71 104.991 114.71 105.43V116.31C114.71 116.748 115.065 117.104 115.503 117.104H117.492C117.93 117.104 118.285 116.748 118.285 116.31V105.43C118.285 104.991 117.93 104.636 117.492 104.636Z" fill="#407BFF"/>
<path opacity="0.6" d="M117.492 104.636H115.503C115.065 104.636 114.71 104.991 114.71 105.43V116.31C114.71 116.748 115.065 117.104 115.503 117.104H117.492C117.93 117.104 118.285 116.748 118.285 116.31V105.43C118.285 104.991 117.93 104.636 117.492 104.636Z" fill="white"/>
<path d="M117.492 153.653H115.503C115.065 153.653 114.71 154.009 114.71 154.447V165.328C114.71 165.766 115.065 166.121 115.503 166.121H117.492C117.93 166.121 118.285 165.766 118.285 165.328V154.447C118.285 154.009 117.93 153.653 117.492 153.653Z" fill="#407BFF"/>
<path opacity="0.6" d="M117.492 153.653H115.503C115.065 153.653 114.71 154.009 114.71 154.447V165.328C114.71 165.766 115.065 166.121 115.503 166.121H117.492C117.93 166.121 118.285 165.766 118.285 165.328V154.447C118.285 154.009 117.93 153.653 117.492 153.653Z" fill="white"/>
<path d="M147.225 153.659C157.319 153.659 165.502 145.476 165.502 135.381C165.502 125.287 157.319 117.104 147.225 117.104C137.13 117.104 128.947 125.287 128.947 135.381C128.947 145.476 137.13 153.659 147.225 153.659Z" fill="#407BFF"/>
<path opacity="0.6" d="M147.225 153.659C157.319 153.659 165.502 145.476 165.502 135.381C165.502 125.287 157.319 117.104 147.225 117.104C137.13 117.104 128.947 125.287 128.947 135.381C128.947 145.476 137.13 153.659 147.225 153.659Z" fill="white"/>
<path d="M138.181 125.574L137.423 126.332L156.275 145.184L157.033 144.426L138.181 125.574Z" fill="#407BFF"/>
<path d="M156.275 125.574L137.423 144.426L138.181 145.184L157.033 126.332L156.275 125.574Z" fill="#407BFF"/>
<path opacity="0.2" d="M156.213 125.513L137.361 144.365L138.119 145.123L156.971 126.271L156.213 125.513Z" fill="black"/>
<path opacity="0.2" d="M138.123 125.517L137.365 126.275L156.217 145.127L156.975 144.369L138.123 125.517Z" fill="black"/>
<path d="M147.17 149.194C144.426 149.195 141.742 148.382 139.459 146.858C137.177 145.334 135.397 143.167 134.346 140.631C133.295 138.095 133.019 135.305 133.554 132.613C134.089 129.921 135.41 127.447 137.351 125.506C139.291 123.565 141.764 122.243 144.456 121.707C147.148 121.171 149.938 121.445 152.474 122.496C155.01 123.546 157.178 125.324 158.703 127.607C160.228 129.889 161.042 132.572 161.042 135.317C161.039 138.995 159.577 142.523 156.976 145.124C154.376 147.726 150.849 149.19 147.17 149.194ZM147.17 122.512C144.638 122.511 142.161 123.261 140.055 124.667C137.948 126.074 136.306 128.073 135.336 130.413C134.366 132.753 134.112 135.327 134.605 137.812C135.099 140.296 136.318 142.578 138.109 144.369C139.899 146.161 142.181 147.381 144.665 147.875C147.149 148.37 149.724 148.117 152.064 147.148C154.404 146.179 156.404 144.537 157.812 142.432C159.219 140.326 159.97 137.85 159.97 135.317C159.967 131.923 158.618 128.668 156.218 126.267C153.819 123.867 150.565 122.516 147.17 122.512Z" fill="#407BFF"/>
<path d="M151.271 139.423C153.538 137.156 153.538 133.48 151.271 131.213C149.004 128.946 145.329 128.946 143.062 131.213C140.795 133.48 140.795 137.156 143.062 139.423C145.329 141.689 149.004 141.689 151.271 139.423Z" fill="#407BFF"/>
<path opacity="0.2" d="M147.17 149.194C144.426 149.195 141.742 148.382 139.459 146.858C137.177 145.334 135.397 143.167 134.346 140.631C133.295 138.095 133.019 135.305 133.554 132.613C134.089 129.921 135.41 127.447 137.351 125.506C139.291 123.565 141.764 122.243 144.456 121.707C147.148 121.171 149.938 121.445 152.474 122.496C155.01 123.546 157.178 125.324 158.703 127.607C160.228 129.889 161.042 132.572 161.042 135.317C161.039 138.995 159.577 142.523 156.976 145.124C154.376 147.726 150.849 149.19 147.17 149.194ZM147.17 122.512C144.638 122.511 142.161 123.261 140.055 124.667C137.948 126.074 136.306 128.073 135.336 130.413C134.366 132.753 134.112 135.327 134.605 137.812C135.099 140.296 136.318 142.578 138.109 144.369C139.899 146.161 142.181 147.381 144.665 147.875C147.149 148.37 149.724 148.117 152.064 147.148C154.404 146.179 156.404 144.537 157.812 142.432C159.219 140.326 159.97 137.85 159.97 135.317C159.967 131.923 158.618 128.668 156.218 126.267C153.819 123.867 150.565 122.516 147.17 122.512Z" fill="black"/>
<path opacity="0.2" d="M151.271 139.423C153.538 137.156 153.538 133.48 151.271 131.213C149.004 128.946 145.329 128.946 143.062 131.213C140.795 133.48 140.795 137.156 143.062 139.423C145.329 141.689 149.004 141.689 151.271 139.423Z" fill="black"/>
<path d="M102.376 57.9131C103.667 60.9093 105.002 63.9431 106.353 66.9286C107.703 69.9141 109.086 72.8943 110.566 75.7405C110.946 76.4373 111.311 77.1608 111.707 77.8201L111.997 78.324L112.147 78.5759C112.132 78.5554 112.114 78.5373 112.093 78.5223C112.029 78.4848 112.093 78.5598 112.222 78.6509C112.714 78.9158 113.246 79.097 113.798 79.1869C114.507 79.3191 115.223 79.4121 115.942 79.4657C117.459 79.5675 119.061 79.5675 120.669 79.5193L123.103 79.4174L125.526 79.2566L126.153 82.1725C122.842 83.278 119.407 83.9659 115.926 84.22C114.987 84.2804 114.044 84.2714 113.106 84.1932C112 84.1184 110.913 83.8612 109.89 83.432C109.182 83.1224 108.545 82.6699 108.02 82.1028C107.862 81.9347 107.717 81.7556 107.586 81.5668L107.398 81.288L107.034 80.752C106.524 80.0124 106.096 79.2727 105.635 78.5277C103.898 75.5529 102.344 72.5405 100.886 69.5014C99.4277 66.4623 98.0716 63.3964 96.7959 60.25L102.376 57.9131Z" fill="#7F3E3B"/>
<path d="M95.2575 57.5059C94.0408 61.0649 101.191 71.533 101.191 71.533L108.041 67.7381C106.878 64.4725 105.505 61.2856 103.93 58.1973C101.513 53.6681 96.5922 53.5984 95.2575 57.5059Z" fill="#407BFF"/>
<path opacity="0.5" d="M95.2575 57.5059C94.0408 61.0649 101.191 71.533 101.191 71.533L108.041 67.7381C106.878 64.4725 105.505 61.2856 103.93 58.1973C101.513 53.6681 96.5922 53.5984 95.2575 57.5059Z" fill="white"/>
<path d="M95.1567 57.9507C96.6897 57.2163 98.4585 57.8327 100.313 60.77C102.168 63.7073 103.754 68.6117 103.931 70.0107L101.192 71.5275C101.192 71.5275 94.5886 61.8581 95.1567 57.9507Z" fill="#407BFF"/>
<path opacity="0.4" d="M95.1567 57.9507C96.6897 57.2163 98.4585 57.8327 100.313 60.77C102.168 63.7073 103.754 68.6117 103.931 70.0107L101.192 71.5275C101.192 71.5275 94.5886 61.8581 95.1567 57.9507Z" fill="white"/>
<path d="M99.8831 54.7829C99.8831 54.7829 104.986 66.784 101.304 89.1298H80.0565C79.7938 85.8656 81.2946 69.9517 77.6123 54.5792C79.9484 54.1243 82.3119 53.8235 84.6875 53.6788C87.6956 53.5071 90.711 53.5071 93.7191 53.6788C95.7989 53.8891 97.8596 54.2582 99.8831 54.7829Z" fill="#407BFF"/>
<path opacity="0.5" d="M99.8831 54.7829C99.8831 54.7829 104.986 66.784 101.304 89.1298H80.0565C79.7938 85.8656 81.2946 69.9517 77.6123 54.5792C79.9484 54.1243 82.3119 53.8235 84.6875 53.6788C87.6956 53.5071 90.711 53.5071 93.7191 53.6788C95.7989 53.8891 97.8596 54.2582 99.8831 54.7829Z" fill="white"/>
<path d="M82.3615 58.3741C82.801 60.904 82.2168 66.9501 80.046 73.9503C79.8761 67.9528 79.1784 61.9819 77.9609 56.1068V56.0747C79.3545 55.9353 81.9381 55.9996 82.3615 58.3741Z" fill="#407BFF"/>
<path opacity="0.4" d="M82.3615 58.3741C82.801 60.904 82.2168 66.9501 80.046 73.9503C79.8761 67.9528 79.1784 61.9819 77.9609 56.1068V56.0747C79.3545 55.9353 81.9381 55.9996 82.3615 58.3741Z" fill="white"/>
<path d="M72.5254 184.339L75.6771 187.159L81.6749 180.914L78.5232 178.095L72.5254 184.339Z" fill="#7F3E3B"/>
<path d="M76.5461 186.028L72.7191 183.466C72.6566 183.416 72.5791 183.389 72.4993 183.389C72.4196 183.389 72.3421 183.416 72.2796 183.466L69.353 186.419C69.2959 186.484 69.2538 186.561 69.2296 186.644C69.2054 186.727 69.1998 186.814 69.2131 186.899C69.2264 186.985 69.2583 187.066 69.3066 187.138C69.3548 187.21 69.4183 187.27 69.4924 187.314C71.9365 189.196 73.7 190.616 75.0936 192.181C76.7016 194.009 77.5699 194.272 81.3219 194.272C83.0585 194.272 84.0394 192.808 83.3319 192.583C77.0821 190.605 78.7545 189.742 77.2322 186.843C77.0779 186.516 76.8415 186.235 76.5461 186.028Z" fill="#263238"/>
<path d="M81.6697 180.914L78.5823 184.136L75.4307 181.311L78.518 178.095L81.6697 180.914Z" fill="#5E2B2B"/>
<path d="M83.8354 181.006H87.8071L87.5391 185.749H83.5674L83.8354 181.006Z" fill="#5E2B2B"/>
<path d="M101.304 89.1298C101.304 89.1298 105.49 118.106 106.916 133.875C108.063 146.53 80.7005 184.259 80.7005 184.259L75.4102 179.28C75.4102 179.28 95.3922 145.453 93.8539 131.367C92.3692 117.725 87.3147 89.1138 87.3147 89.1138L101.304 89.1298Z" fill="#407BFF"/>
<path opacity="0.5" d="M101.304 89.1298C101.304 89.1298 105.49 118.106 106.916 133.875C108.063 146.53 80.7005 184.259 80.7005 184.259L75.4102 179.28C75.4102 179.28 95.3922 145.453 93.8539 131.367C92.3692 117.725 87.3147 89.1138 87.3147 89.1138L101.304 89.1298Z" fill="black"/>
<path d="M83.3164 190.203H87.2935L87.8081 181.006H83.8363L83.3164 190.203Z" fill="#7F3E3B"/>
<path d="M87.5019 189.748H83.037C82.9626 189.745 82.8899 189.771 82.8348 189.821C82.7796 189.872 82.7464 189.941 82.7422 190.016L82.5225 193.548C82.5218 193.64 82.5392 193.732 82.5739 193.817C82.6085 193.903 82.6596 193.98 82.7243 194.046C82.789 194.112 82.8661 194.164 82.951 194.2C83.0359 194.236 83.1271 194.255 83.2193 194.256C84.7737 194.229 85.5187 194.138 87.5073 194.138C88.7133 194.138 93.8482 194.266 95.5205 194.266C97.1928 194.266 97.1285 192.615 96.4317 192.465C93.2639 191.795 89.335 190.857 88.2094 189.989C88.0082 189.83 87.7584 189.745 87.5019 189.748Z" fill="#263238"/>
<path d="M124.689 79.4389L128.34 77.9917L129.229 81.7437C129.229 81.7437 125.065 82.9872 124.405 81.7866L124.689 79.4389Z" fill="#7F3E3B"/>
<path d="M131.433 78.7475L132.505 80.8003L129.23 81.733L128.34 77.9917L131.433 78.7475Z" fill="#7F3E3B"/>
<path d="M94.599 53.7538L93.7307 53.6627C90.7226 53.491 87.7072 53.491 84.6991 53.6627L84.1631 53.6948L84.2113 53.8395C84.2542 53.9521 85.2512 56.6053 90.9703 56.6053C93.4627 56.6053 94.7652 56.1926 95.0653 55.2975C95.1266 55.0218 95.1159 54.7349 95.0342 54.4646C94.9525 54.1942 94.8027 53.9494 94.599 53.7538Z" fill="#E6E6E6"/>
<path d="M85.2235 43.5055C85.8935 46.4106 86.6493 51.7385 84.6875 53.6895C84.6875 53.6895 85.5344 56.0961 90.9373 56.0961C96.8761 56.0961 93.7191 53.6895 93.7191 53.6895C90.4495 52.9177 90.4549 50.511 90.9373 48.2545L85.2235 43.5055Z" fill="#7F3E3B"/>
<path d="M87.5664 45.4404L90.9486 48.2384C90.8268 48.7668 90.7515 49.3048 90.7234 49.8464C89.4799 49.6695 87.7326 48.308 87.5557 47.0109C87.461 46.4913 87.4647 45.9586 87.5664 45.4404Z" fill="#5E2B2B"/>
<path d="M93.7144 34.8598C95.5207 36.0283 95.778 41.6456 93.1355 42.4496C90.493 43.2536 90.2947 32.6515 93.7144 34.8598Z" fill="#263238"/>
<path d="M83.9693 40.461C85.1807 44.213 85.6953 46.4803 88.1394 48.0186C88.9279 48.5254 89.8399 48.8069 90.7769 48.8328C91.7138 48.8586 92.64 48.6278 93.4552 48.1653C94.2704 47.7027 94.9437 47.0261 95.4021 46.2086C95.8605 45.3911 96.0867 44.4637 96.0561 43.5269C96.0079 39.9197 94.0354 34.3667 89.8814 33.6699C88.9861 33.4971 88.0612 33.5625 87.1991 33.8596C86.3371 34.1567 85.5682 34.6751 84.9695 35.3628C84.3708 36.0505 83.9633 36.8834 83.7878 37.7782C83.6123 38.6729 83.6749 39.5981 83.9693 40.461Z" fill="#7F3E3B"/>
<path d="M79.6395 36.9288C80.9366 39.2819 84.1955 44.6419 85.7606 44.1059C87.3257 43.5699 87.3311 39.2819 85.3211 36.5643C85.3211 36.5643 101.246 38.1723 101.567 29.1247C101.894 19.8679 94.224 28.8245 87.4758 31.4134C80.1326 34.2542 76.5896 31.3919 79.6395 36.9288Z" fill="#263238"/>
<path d="M80.3202 33.6485C80.2899 33.6423 80.2627 33.6259 80.2431 33.6019C80.2236 33.578 80.2129 33.5481 80.2129 33.5171C80.2129 33.4862 80.2236 33.4563 80.2431 33.4323C80.2627 33.4084 80.2899 33.392 80.3202 33.3858C80.5614 33.3322 80.8241 33.284 81.1081 33.2304C83.2436 32.8818 85.3258 32.2622 87.3043 31.3865C89.3143 30.4861 91.4208 28.9424 93.2861 27.5809C94.471 26.6763 95.7057 25.8388 96.9845 25.0725C97.016 25.0567 97.0523 25.0535 97.0861 25.0634C97.1199 25.0733 97.1487 25.0957 97.1667 25.1261C97.1752 25.1415 97.1805 25.1585 97.1824 25.1761C97.1843 25.1936 97.1828 25.2114 97.1778 25.2283C97.1728 25.2453 97.1645 25.261 97.1534 25.2748C97.1423 25.2885 97.1286 25.2999 97.1131 25.3083C95.8433 26.0694 94.6175 26.9015 93.4415 27.8007C91.5709 29.1675 89.4483 30.7165 87.4115 31.6331C85.4161 32.5169 83.3158 33.142 81.1617 33.493C80.8777 33.5466 80.6257 33.5949 80.3738 33.6485H80.3202Z" fill="#263238"/>
<path d="M83.3048 45.0438C84.0236 45.7424 84.9825 46.1394 85.9848 46.1533C87.3141 46.1533 87.5928 44.8991 86.8799 43.8485C86.2474 42.9052 84.8002 41.7688 83.6317 42.278C82.4633 42.7872 82.4257 44.1808 83.3048 45.0438Z" fill="#7F3E3B"/>
<path opacity="0.2" d="M93.8592 131.383C93.0927 124.356 91.3775 113.346 89.9035 104.331C90.6754 102.819 92.8408 99.7588 92.8408 99.7588C94.7811 106.464 98.9995 131.742 92.9802 165.88C86.709 175.989 80.7058 184.275 80.7058 184.275L79.8643 171.24C85.6799 160.338 94.9259 141.122 93.8592 131.383Z" fill="black"/>
<path d="M90.0744 40.2519C90.1548 40.5627 90.3852 40.7879 90.6104 40.7343C90.8355 40.6807 90.9159 40.3966 90.8355 40.0857C90.7551 39.7748 90.5246 39.5497 90.2995 39.6087C90.0744 39.6676 89.994 39.941 90.0744 40.2519Z" fill="#263238"/>
<path d="M93.6132 39.4747C93.6936 39.7856 93.9241 40.0107 94.1492 39.9571C94.3743 39.9035 94.4547 39.6248 94.3743 39.3139C94.2939 39.003 94.0688 38.7779 93.8383 38.8315C93.6079 38.8851 93.5328 39.1638 93.6132 39.4747Z" fill="#263238"/>
<path d="M92.5303 39.8767C93.1479 40.7462 93.8779 41.5302 94.7011 42.2083C94.522 42.4072 94.3016 42.5645 94.0553 42.6691C93.809 42.7738 93.5428 42.8232 93.2753 42.814L92.5303 39.8767Z" fill="#630F0F"/>
<path d="M91.9238 43.9449C91.271 43.9514 90.6375 43.7232 90.1389 43.3017C90.1301 43.2933 90.1231 43.2832 90.1182 43.272C90.1133 43.2608 90.1106 43.2488 90.1104 43.2366C90.1101 43.2244 90.1123 43.2123 90.1167 43.2009C90.1211 43.1896 90.1278 43.1792 90.1362 43.1704C90.1447 43.1616 90.1548 43.1546 90.1659 43.1497C90.1771 43.1448 90.1891 43.1421 90.2013 43.1419C90.2135 43.1416 90.2256 43.1438 90.237 43.1482C90.2484 43.1526 90.2588 43.1593 90.2675 43.1677C90.5814 43.4227 90.9489 43.6034 91.3424 43.6962C91.736 43.7891 92.1455 43.7916 92.5402 43.7037C92.5522 43.7009 92.5646 43.7005 92.5767 43.7025C92.5888 43.7044 92.6004 43.7088 92.6109 43.7153C92.6213 43.7217 92.6304 43.7302 92.6376 43.7402C92.6448 43.7501 92.6499 43.7614 92.6527 43.7734C92.6556 43.7854 92.656 43.7978 92.654 43.8099C92.652 43.822 92.6477 43.8337 92.6412 43.8441C92.6347 43.8546 92.6263 43.8636 92.6163 43.8708C92.6063 43.878 92.595 43.8831 92.5831 43.886C92.3662 43.9302 92.1451 43.9499 91.9238 43.9449Z" fill="#263238"/>
<path d="M88.6703 39.3569C88.6456 39.3619 88.62 39.3619 88.5953 39.3569C88.5723 39.3476 88.5515 39.3337 88.5341 39.3161C88.5167 39.2984 88.503 39.2774 88.494 39.2544C88.4849 39.2313 88.4807 39.2066 88.4815 39.1818C88.4824 39.1571 88.4883 39.1327 88.4988 39.1103C88.6132 38.8387 88.7921 38.5992 89.02 38.4124C89.2479 38.2256 89.5179 38.0972 89.8067 38.0383C89.856 38.0334 89.9054 38.0473 89.9451 38.077C89.9848 38.1068 90.0119 38.1504 90.0211 38.1991C90.0248 38.2238 90.0237 38.249 90.0176 38.2732C90.0115 38.2974 90.0007 38.3201 89.9857 38.3401C89.9707 38.3601 89.9519 38.3768 89.9304 38.3894C89.9088 38.4021 89.885 38.4102 89.8602 38.4135C89.6335 38.4646 89.4225 38.5698 89.2452 38.72C89.0678 38.8703 88.9295 39.0612 88.8419 39.2765C88.8234 39.3043 88.7976 39.3265 88.7674 39.3407C88.7371 39.3549 88.7035 39.3605 88.6703 39.3569Z" fill="#263238"/>
<path d="M94.8081 37.9365C94.7802 37.9367 94.7527 37.9305 94.7276 37.9184C94.7025 37.9064 94.6806 37.8887 94.6634 37.8668C94.5126 37.6793 94.3216 37.528 94.1045 37.4241C93.8874 37.3202 93.6498 37.2663 93.4091 37.2665C93.3596 37.2695 93.3109 37.2534 93.273 37.2215C93.235 37.1895 93.2109 37.1442 93.2054 37.095C93.2024 37.0455 93.2185 36.9967 93.2504 36.9588C93.2824 36.9209 93.3277 36.8967 93.377 36.8913C93.6783 36.8852 93.977 36.9482 94.2502 37.0755C94.5233 37.2027 94.7637 37.3909 94.9528 37.6256C94.9842 37.6649 94.9989 37.715 94.9939 37.765C94.9889 37.8151 94.9645 37.8612 94.926 37.8936C94.8928 37.921 94.8512 37.9361 94.8081 37.9365Z" fill="#263238"/>
<path d="M80.3674 76.0943C79.2998 75.7348 78.2752 75.2585 77.3122 74.6739C77.1025 74.5405 76.9083 74.3841 76.7333 74.2076C76.9799 73.0552 77.3015 71.8975 77.6499 70.7343C77.9983 69.5712 78.4271 68.3813 78.8719 67.2075C79.3168 66.0336 79.7885 64.8651 80.2816 63.7074C80.5282 63.1285 80.7801 62.5496 81.0374 61.9761L81.8092 60.3091L76.4492 57.5648C76.0955 58.2348 75.806 58.8244 75.5166 59.4623C75.2271 60.1001 74.9806 60.7165 74.6911 61.349C74.1623 62.6211 73.6799 63.9093 73.2439 65.2135C72.3354 67.8762 71.6979 70.6237 71.3411 73.4143V73.5591V73.8378C71.3277 74.0305 71.3277 74.2239 71.3411 74.4167C71.3628 74.8058 71.4311 75.1909 71.5448 75.5637C71.7561 76.2209 72.099 76.8282 72.5525 77.3486C73.2196 78.0752 74.0203 78.6666 74.9109 79.0906C76.2827 79.7376 77.7333 80.2026 79.2257 80.4735C81.9434 80.9898 84.7098 81.2055 87.4747 81.1167L87.7213 78.1419C85.2326 77.6017 82.7772 76.918 80.3674 76.0943Z" fill="#7F3E3B"/>
<path d="M88.9122 190.434C88.551 190.425 88.1916 190.379 87.8402 190.294C87.8241 190.289 87.8094 190.28 87.7974 190.268C87.7853 190.256 87.7761 190.241 87.7705 190.225C87.768 190.208 87.7702 190.19 87.7768 190.174C87.7834 190.158 87.7942 190.144 87.8081 190.134C87.9367 190.043 89.0623 189.276 89.5447 189.469C89.5995 189.49 89.6479 189.525 89.6854 189.57C89.723 189.615 89.7483 189.669 89.7591 189.726C89.7826 189.813 89.7842 189.903 89.7636 189.991C89.743 190.078 89.7009 190.158 89.6412 190.225C89.4318 190.381 89.1726 190.455 88.9122 190.434ZM88.0975 190.166C88.8104 190.305 89.341 190.284 89.5286 190.101C89.5672 190.055 89.5933 190 89.6046 189.941C89.6158 189.882 89.6118 189.821 89.5929 189.764C89.5881 189.736 89.5762 189.709 89.5584 189.687C89.5406 189.664 89.5175 189.646 89.4911 189.635C89.207 189.523 88.4995 189.898 88.0975 190.166Z" fill="#407BFF"/>
<path d="M87.8715 190.294C87.8576 190.299 87.8425 190.299 87.8286 190.294C87.8152 190.288 87.8037 190.278 87.7953 190.266C87.7868 190.254 87.7817 190.24 87.7803 190.225C87.7803 190.177 87.6892 189.035 88.0912 188.649C88.1414 188.599 88.2023 188.562 88.2692 188.54C88.3361 188.517 88.4073 188.511 88.4772 188.52C88.5556 188.523 88.6309 188.552 88.691 188.603C88.7512 188.653 88.7929 188.722 88.8095 188.799C88.9006 189.233 88.311 190.059 87.9143 190.294H87.8715ZM88.4075 188.686C88.3707 188.686 88.3342 188.693 88.3001 188.706C88.266 188.72 88.2351 188.741 88.2092 188.767C87.9884 189.152 87.8964 189.597 87.9465 190.037C88.2735 189.758 88.6969 189.126 88.6326 188.826C88.6326 188.767 88.5897 188.703 88.4503 188.686H88.4075Z" fill="#407BFF"/>
<path d="M79.1244 188.177C78.4155 188.068 77.7389 187.807 77.1412 187.411C77.1236 187.402 77.1095 187.388 77.1017 187.37C77.0938 187.353 77.0926 187.333 77.0983 187.314C77.1034 187.296 77.1137 187.28 77.128 187.267C77.1423 187.255 77.1599 187.247 77.1787 187.245C77.3931 187.245 79.2744 187.105 79.6282 187.534C79.6598 187.569 79.6819 187.612 79.6922 187.658C79.7026 187.704 79.7008 187.751 79.6872 187.797C79.6707 187.87 79.6368 187.939 79.5883 187.997C79.5398 188.055 79.4781 188.1 79.4084 188.129C79.3174 188.162 79.2212 188.178 79.1244 188.177ZM77.4896 187.405C78.3525 187.882 79.0332 188.091 79.3388 187.941C79.3829 187.923 79.4221 187.895 79.4529 187.859C79.4837 187.822 79.5053 187.779 79.5156 187.732C79.525 187.716 79.53 187.698 79.53 187.679C79.53 187.66 79.525 187.641 79.5156 187.625C79.2959 187.411 78.256 187.373 77.4896 187.405Z" fill="#407BFF"/>
<path d="M77.1837 187.427C77.1686 187.426 77.1539 187.422 77.1408 187.415C77.1277 187.407 77.1167 187.397 77.1087 187.384C77.1021 187.371 77.0986 187.356 77.0986 187.341C77.0986 187.326 77.1021 187.311 77.1087 187.298C77.1408 187.234 77.8537 185.781 78.7703 186.226C79.0222 186.349 79.0436 186.494 79.0222 186.596C78.9311 187.03 77.7412 187.421 77.1944 187.438L77.1837 187.427ZM78.4219 186.317C77.9288 186.317 77.5053 186.944 77.3499 187.234C77.9234 187.164 78.8024 186.805 78.856 186.548C78.856 186.494 78.8132 186.435 78.6952 186.376C78.6102 186.335 78.5164 186.315 78.4219 186.317Z" fill="#407BFF"/>
<path d="M87.1053 78.099L90.3696 77.2039L90.8144 81.3257C90.8144 81.3257 87.5984 82.2905 86.7998 80.6021L87.1053 78.099Z" fill="#7F3E3B"/>
<path d="M87.042 78.1847C87.7255 77.4435 88.1259 76.4851 88.173 75.4779L89.0091 75.9335C89.0091 75.9335 89.1753 77.7827 88.8483 78.3133C88.5213 78.844 87.042 78.1847 87.042 78.1847Z" fill="#7F3E3B"/>
<path d="M91.8972 77.6112L91.6989 81.3257H90.8145L90.3643 77.2039L91.8972 77.6112Z" fill="#7F3E3B"/>
<path d="M75.0928 178.995L81.0263 184.581L82.9398 182.528L76.1487 176.342L75.0928 178.995Z" fill="#407BFF"/>
<path opacity="0.1" d="M75.0928 178.995L81.0263 184.581L82.9398 182.528L76.1487 176.342L75.0928 178.995Z" fill="black"/>
<path d="M93.7514 89.1297C93.7514 89.1297 94.1266 119.494 93.4834 130.873C92.7812 143.33 89.2436 184.607 89.2436 184.607H81.9648C81.9648 184.607 82.1845 144.338 81.745 132.004C81.2679 118.604 80.0352 89.1244 80.0352 89.1244L93.7514 89.1297Z" fill="#407BFF"/>
<path opacity="0.5" d="M93.7514 89.1297C93.7514 89.1297 94.1266 119.494 93.4834 130.873C92.7812 143.33 89.2436 184.607 89.2436 184.607H81.9648C81.9648 184.607 82.1845 144.338 81.745 132.004C81.2679 118.604 80.0352 89.1244 80.0352 89.1244L93.7514 89.1297Z" fill="black"/>
<path d="M81.6755 184.607H89.5386L89.9728 181.842L81.2949 182.276L81.6755 184.607Z" fill="#407BFF"/>
<path opacity="0.1" d="M81.6755 184.607H89.5386L89.9728 181.842L81.2949 182.276L81.6755 184.607Z" fill="black"/>
<path d="M77.6127 54.5792C73.8607 55.1152 70.0176 68.8958 70.0176 68.8958L79.0599 72.3369C79.0599 72.3369 81.3325 66.4409 82.8869 61.8152C84.5164 56.9966 81.6273 53.9896 77.6127 54.5792Z" fill="#407BFF"/>
<path opacity="0.5" d="M77.6127 54.5792C73.8607 55.1152 70.0176 68.8958 70.0176 68.8958L79.0599 72.3369C79.0599 72.3369 81.3325 66.4409 82.8869 61.8152C84.5164 56.9966 81.6273 53.9896 77.6127 54.5792Z" fill="white"/>
</svg>
