<svg width="242" height="179" viewBox="0 0 242 179" fill="none" xmlns="http://www.w3.org/2000/svg">
<path d="M241.115 157.302H0.884766V157.423H241.115V157.302Z" fill="#EBEBEB"/>
<path d="M42.0036 161.876H26.0908V161.996H42.0036V161.876Z" fill="#EBEBEB"/>
<path d="M105.626 160.574H83.1113V160.694H105.626V160.574Z" fill="#EBEBEB"/>
<path d="M73.9538 166.34H58.2188V166.46H73.9538V166.34Z" fill="#EBEBEB"/>
<path d="M217.045 165.533H213.254V165.653H217.045V165.533Z" fill="#EBEBEB"/>
<path d="M208.977 165.533H188.971V165.653H208.977V165.533Z" fill="#EBEBEB"/>
<path d="M154.79 163.505H134.072V163.625H154.79V163.505Z" fill="#EBEBEB"/>
<path d="M114.754 135.874H21.9818C21.255 135.873 20.5584 135.583 20.045 135.069C19.5315 134.554 19.2432 133.857 19.2432 133.131V2.7194C19.2495 1.9968 19.5407 1.30588 20.0534 0.796707C20.5662 0.287535 21.2592 0.00123785 21.9818 0H114.754C115.481 0 116.179 0.289039 116.694 0.80353C117.208 1.31802 117.497 2.01582 117.497 2.74342V133.131C117.497 133.858 117.208 134.556 116.694 135.07C116.179 135.585 115.481 135.874 114.754 135.874ZM21.9818 0.0960923C21.2869 0.097365 20.6209 0.374309 20.1299 0.866137C19.639 1.35797 19.3633 2.02449 19.3633 2.7194V133.131C19.3633 133.825 19.639 134.492 20.1299 134.984C20.6209 135.476 21.2869 135.753 21.9818 135.754H114.754C115.449 135.753 116.116 135.476 116.607 134.984C117.099 134.492 117.376 133.826 117.377 133.131V2.7194C117.376 2.02405 117.099 1.35753 116.607 0.865844C116.116 0.374153 115.449 0.0973623 114.754 0.0960923H21.9818Z" fill="#EBEBEB"/>
<path d="M218.682 135.874H125.906C125.178 135.873 124.481 135.583 123.967 135.069C123.453 134.555 123.163 133.858 123.162 133.131V2.7194C123.17 1.99636 123.462 1.30545 123.975 0.796406C124.489 0.287367 125.182 0.00122435 125.906 0H218.682C219.404 0.00250055 220.096 0.289356 220.608 0.798393C221.119 1.30743 221.41 1.99763 221.416 2.7194V133.131C221.416 133.856 221.128 134.553 220.616 135.067C220.104 135.581 219.408 135.871 218.682 135.874ZM125.906 0.0960923C125.21 0.0973623 124.544 0.374153 124.052 0.865844C123.56 1.35753 123.283 2.02405 123.282 2.7194V133.131C123.283 133.826 123.56 134.492 124.052 134.984C124.544 135.476 125.21 135.753 125.906 135.754H218.682C219.378 135.753 220.044 135.476 220.536 134.984C221.028 134.492 221.304 133.826 221.306 133.131V2.7194C221.304 2.02405 221.028 1.35753 220.536 0.865844C220.044 0.374153 219.378 0.0973623 218.682 0.0960923H125.906Z" fill="#EBEBEB"/>
<path d="M185.136 47.3733H211.109V17.4887L185.136 17.4887V47.3733Z" fill="#EBEBEB"/>
<path d="M187.966 19.3963C187.993 19.395 188.02 19.3867 188.043 19.3722C188.115 19.329 195.375 15.0097 197.686 15.0097C199.997 15.0097 206.92 19.3338 206.992 19.3722C207.009 19.3828 207.027 19.3899 207.047 19.3932C207.066 19.3965 207.086 19.3959 207.105 19.3914C207.125 19.387 207.143 19.3787 207.159 19.3672C207.175 19.3556 207.188 19.341 207.199 19.3242C207.219 19.2902 207.225 19.2498 207.216 19.2113C207.207 19.1728 207.184 19.1393 207.151 19.1176C206.862 18.935 200.078 14.7118 197.686 14.7118C195.293 14.7118 188.187 18.935 187.889 19.1176C187.872 19.1275 187.857 19.1408 187.845 19.1566C187.833 19.1724 187.824 19.1905 187.819 19.2098C187.814 19.229 187.813 19.2491 187.816 19.2687C187.819 19.2884 187.826 19.3072 187.836 19.3242C187.85 19.3459 187.87 19.3638 187.892 19.3763C187.915 19.3889 187.94 19.3958 187.966 19.3963Z" fill="#EBEBEB"/>
<path d="M182.191 47.3733H210.303V17.4887L182.191 17.4887V47.3733Z" fill="#F5F5F5"/>
<path d="M207.949 45.0189V19.8477H184.551V45.0189H207.949Z" fill="white"/>
<path d="M194.881 36.6687C194.881 36.0985 194.712 35.5411 194.395 35.0671C194.078 34.593 193.628 34.2235 193.101 34.0053C192.574 33.7871 191.995 33.73 191.436 33.8413C190.876 33.9525 190.363 34.2271 189.96 34.6302C189.556 35.0334 189.282 35.547 189.171 36.1063C189.059 36.6655 189.116 37.2451 189.335 37.7718C189.553 38.2986 189.922 38.7488 190.396 39.0656C190.87 39.3823 191.428 39.5514 191.998 39.5514C192.763 39.5514 193.496 39.2477 194.036 38.7071C194.577 38.1664 194.881 37.4332 194.881 36.6687Z" fill="#F5F5F5"/>
<path d="M203.346 28.1982C203.346 27.628 203.177 27.0707 202.86 26.5966C202.543 26.1225 202.093 25.7531 201.566 25.5349C201.039 25.3167 200.46 25.2596 199.9 25.3708C199.341 25.4821 198.828 25.7566 198.424 26.1598C198.021 26.5629 197.747 27.0766 197.635 27.6358C197.524 28.195 197.581 28.7746 197.8 29.3014C198.018 29.8281 198.387 30.2784 198.861 30.5951C199.335 30.9119 199.893 31.0809 200.463 31.0809C201.227 31.0809 201.961 30.7772 202.501 30.2366C203.042 29.696 203.346 28.9627 203.346 28.1982Z" fill="#F5F5F5"/>
<path d="M147.919 71.8718H173.893V41.9872H147.919V71.8718Z" fill="#EBEBEB"/>
<path d="M150.745 43.8948C150.77 43.9013 150.797 43.9013 150.822 43.8948C150.894 43.8515 158.154 39.5322 160.465 39.5322C162.776 39.5322 169.699 43.8563 169.771 43.89C169.788 43.9005 169.807 43.9076 169.826 43.9109C169.846 43.9142 169.866 43.9136 169.885 43.9091C169.904 43.9047 169.922 43.8964 169.938 43.8849C169.954 43.8733 169.968 43.8587 169.978 43.8419C169.998 43.8079 170.004 43.7675 169.995 43.729C169.986 43.6905 169.963 43.657 169.93 43.6353C169.642 43.4575 162.858 39.2295 160.465 39.2295C158.072 39.2295 150.966 43.4527 150.668 43.6353C150.651 43.6452 150.636 43.6585 150.624 43.6743C150.612 43.6901 150.603 43.7082 150.598 43.7275C150.593 43.7467 150.592 43.7668 150.595 43.7864C150.598 43.8061 150.605 43.8249 150.616 43.8419C150.631 43.8607 150.651 43.8753 150.674 43.8845C150.696 43.8937 150.721 43.8973 150.745 43.8948Z" fill="#EBEBEB"/>
<path d="M144.97 71.8718H173.082V41.9872H144.97V71.8718Z" fill="#F5F5F5"/>
<path d="M170.723 69.5177V44.3464H147.324V69.5177H170.723Z" fill="white"/>
<path d="M156.805 62.0176C156.805 61.4475 156.636 60.8901 156.319 60.4161C156.002 59.942 155.552 59.5725 155.025 59.3543C154.498 59.1361 153.919 59.079 153.359 59.1903C152.8 59.3015 152.287 59.5761 151.883 59.9792C151.48 60.3824 151.206 60.896 151.094 61.4552C150.983 62.0144 151.04 62.5941 151.258 63.1208C151.477 63.6476 151.846 64.0978 152.32 64.4146C152.794 64.7313 153.352 64.9004 153.922 64.9004C154.686 64.9004 155.42 64.5967 155.96 64.0561C156.501 63.5154 156.805 62.7822 156.805 62.0176Z" fill="#F5F5F5"/>
<path d="M166.974 51.8463C166.974 51.2761 166.805 50.7188 166.489 50.2447C166.172 49.7706 165.722 49.4011 165.195 49.1829C164.668 48.9648 164.089 48.9077 163.529 49.0189C162.97 49.1301 162.456 49.4047 162.053 49.8078C161.65 50.211 161.376 50.7247 161.264 51.2839C161.153 51.8431 161.21 52.4227 161.428 52.9494C161.647 53.4762 162.016 53.9264 162.49 54.2432C162.964 54.5599 163.522 54.729 164.092 54.729C164.856 54.729 165.59 54.4253 166.13 53.8847C166.671 53.3441 166.974 52.6108 166.974 51.8463Z" fill="#F5F5F5"/>
<path d="M161.248 62.0176C161.248 61.4475 161.417 60.8901 161.734 60.4161C162.051 59.942 162.501 59.5725 163.028 59.3543C163.554 59.1361 164.134 59.079 164.693 59.1903C165.252 59.3015 165.766 59.5761 166.169 59.9792C166.572 60.3824 166.847 60.896 166.958 61.4552C167.069 62.0144 167.012 62.5941 166.794 63.1208C166.576 63.6476 166.206 64.0978 165.732 64.4146C165.258 64.7313 164.701 64.9004 164.131 64.9004C163.366 64.9004 162.633 64.5967 162.092 64.0561C161.552 63.5154 161.248 62.7822 161.248 62.0176Z" fill="#F5F5F5"/>
<path d="M151.07 51.8463C151.07 51.2761 151.239 50.7188 151.556 50.2447C151.873 49.7706 152.323 49.4011 152.85 49.1829C153.377 48.9648 153.956 48.9077 154.515 49.0189C155.075 49.1301 155.588 49.4047 155.991 49.8078C156.395 50.211 156.669 50.7247 156.78 51.2839C156.892 51.8431 156.835 52.4227 156.616 52.9494C156.398 53.4762 156.029 53.9264 155.555 54.2432C155.081 54.5599 154.523 54.729 153.953 54.729C153.189 54.729 152.455 54.4253 151.915 53.8847C151.374 53.3441 151.07 52.6108 151.07 51.8463Z" fill="#F5F5F5"/>
<path d="M38.3461 91.2969L131.949 91.2969V11.6655L38.3461 11.6655L38.3461 91.2969Z" fill="#E6E6E6"/>
<path d="M37.0004 91.2969L130.604 91.2969V11.6655L37.0004 11.6655L37.0004 91.2969Z" fill="#F5F5F5"/>
<path d="M128.191 88.587V14.3752L39.4169 14.3752V88.587H128.191Z" fill="white"/>
<path d="M40.4316 88.587L40.4316 14.3752H39.4131L39.4131 88.587H40.4316Z" fill="#E6E6E6"/>
<path d="M38.0011 80.3713L129.605 80.3713V76.7295L38.0011 76.7295V80.3713Z" fill="#F5F5F5"/>
<path d="M34.3738 7.17801H134.578C134.627 7.17737 134.676 7.18647 134.721 7.20478C134.767 7.22309 134.808 7.25024 134.843 7.28465C134.878 7.31907 134.906 7.36007 134.925 7.40527C134.943 7.45047 134.953 7.49897 134.953 7.54796C134.953 7.59695 134.943 7.64546 134.925 7.69066C134.906 7.73586 134.878 7.77686 134.843 7.81127C134.808 7.84569 134.767 7.87284 134.721 7.89115C134.676 7.90945 134.627 7.91855 134.578 7.91792H34.3738C34.3248 7.91855 34.2762 7.90945 34.2307 7.89115C34.1853 7.87284 34.1439 7.84569 34.1091 7.81127C34.0742 7.77686 34.0465 7.73586 34.0276 7.69066C34.0087 7.64546 33.999 7.59695 33.999 7.54796C33.999 7.49897 34.0087 7.45047 34.0276 7.40527C34.0465 7.36007 34.0742 7.31907 34.1091 7.28465C34.1439 7.25024 34.1853 7.22309 34.2307 7.20478C34.2762 7.18647 34.3248 7.17737 34.3738 7.17801Z" fill="#E6E6E6"/>
<path d="M32.1436 7.54811C32.1436 7.91606 32.2527 8.27574 32.4573 8.58162C32.6618 8.8875 32.9525 9.12581 33.2925 9.2664C33.6325 9.40699 34.0066 9.44353 34.3675 9.3714C34.7283 9.29926 35.0596 9.1217 35.3194 8.86118C35.5793 8.60066 35.756 8.2689 35.8272 7.9079C35.8984 7.5469 35.8609 7.17289 35.7194 6.83322C35.5779 6.49355 35.3389 6.20348 35.0325 5.99975C34.7261 5.79602 34.3661 5.68778 33.9981 5.68873C33.7542 5.68873 33.5126 5.73686 33.2873 5.83036C33.062 5.92386 32.8573 6.06089 32.6851 6.23362C32.5128 6.40634 32.3763 6.61136 32.2834 6.83692C32.1904 7.06248 32.1429 7.30416 32.1436 7.54811Z" fill="#E6E6E6"/>
<path d="M131.445 9.6092C131.51 9.61246 131.575 9.60245 131.637 9.57977C131.698 9.55708 131.753 9.52221 131.801 9.47726C131.848 9.43232 131.885 9.37825 131.911 9.31833C131.937 9.25842 131.95 9.19391 131.95 9.12874V8.04771C131.95 7.98254 131.937 7.91804 131.911 7.85813C131.885 7.79821 131.848 7.74414 131.801 7.69919C131.753 7.65425 131.698 7.61937 131.637 7.59669C131.575 7.57401 131.51 7.56399 131.445 7.56725C131.318 7.56725 131.196 7.61787 131.106 7.70797C131.015 7.79808 130.965 7.92029 130.965 8.04771V9.12874C130.965 9.25617 131.015 9.37838 131.106 9.46848C131.196 9.55859 131.318 9.6092 131.445 9.6092Z" fill="#E6E6E6"/>
<path d="M39.9746 9.60921C40.102 9.60921 40.2242 9.55859 40.3143 9.46849C40.4044 9.37839 40.4551 9.25618 40.4551 9.12875V8.04772C40.4551 7.92029 40.4044 7.79809 40.3143 7.70798C40.2242 7.61788 40.102 7.56726 39.9746 7.56726C39.8472 7.56726 39.725 7.61788 39.6349 7.70798C39.5448 7.79809 39.4941 7.92029 39.4941 8.04772V9.12875C39.4941 9.25618 39.5448 9.37839 39.6349 9.46849C39.725 9.55859 39.8472 9.60921 39.9746 9.60921Z" fill="#E6E6E6"/>
<path opacity="0.4" d="M34.4889 68.6193L129.605 68.6193V7.54805L34.4889 7.54805L34.4889 68.6193Z" fill="#E0E0E0"/>
<path d="M123.613 7.5481C123.613 7.91585 123.722 8.27534 123.927 8.58111C124.131 8.88689 124.421 9.12521 124.761 9.26594C125.101 9.40668 125.475 9.4435 125.835 9.37175C126.196 9.30001 126.527 9.12292 126.787 8.86288C127.047 8.60284 127.225 8.27153 127.296 7.91085C127.368 7.55016 127.331 7.1763 127.19 6.83655C127.05 6.49679 126.811 6.20639 126.506 6.00208C126.2 5.79777 125.84 5.68872 125.473 5.68872C124.98 5.68872 124.507 5.88462 124.158 6.23332C123.809 6.58202 123.613 7.05496 123.613 7.5481Z" fill="#E6E6E6"/>
<path d="M180.696 104.485H180.35C180.364 104.421 180.374 104.355 180.379 104.288C180.379 102.847 178.615 101.67 176.434 101.665C176.57 101.373 176.642 101.055 176.645 100.733C176.645 99.2917 175.257 98.105 173.537 98.105C173.068 98.1069 172.604 98.2016 172.172 98.3836C172.189 98.2914 172.2 98.1984 172.206 98.105C172.206 96.2312 170.409 94.7081 168.189 94.7081C166.325 94.7081 164.778 95.7844 164.317 97.2354C163.732 96.6266 163.028 96.1451 162.248 95.821C161.468 95.497 160.63 95.3373 159.786 95.352C158.815 95.3262 157.853 95.5377 156.982 95.9681C156.111 96.3984 155.359 97.0346 154.789 97.8215C154.477 97.5128 154.106 97.269 153.699 97.1041C153.291 96.9392 152.855 96.8565 152.416 96.8606C150.701 96.8606 149.312 98.0329 149.312 99.4839C149.313 99.8064 149.385 100.125 149.523 100.416C147.342 100.416 145.574 101.593 145.574 103.044C145.581 103.179 145.602 103.313 145.637 103.443H145.257C142.374 103.443 140.049 104.404 140.049 105.639C140.049 106.873 142.379 107.829 145.257 107.829C146.319 107.841 147.377 107.692 148.394 107.387C149.576 109.064 153.261 110.27 157.624 110.27C162.659 110.27 166.791 108.641 167.233 106.566C168.68 107.074 170.206 107.321 171.74 107.296C173.01 107.306 174.275 107.144 175.502 106.816H175.526C175.728 107.95 177.972 108.843 180.715 108.843C183.598 108.843 185.928 107.858 185.928 106.648C185.928 105.437 183.574 104.485 180.696 104.485Z" fill="#E6E6E6"/>
<path d="M188.139 105.812C189.2 105.812 190.218 106.233 190.969 106.984C191.719 107.734 192.141 108.752 192.141 109.814C192.141 114.244 181.158 117.871 167.734 117.871H155.616C142.192 117.871 131.209 114.244 131.209 109.814C131.209 108.752 131.631 107.734 132.381 106.984C133.132 106.233 134.15 105.812 135.211 105.812H188.139Z" fill="#F0F0F0"/>
<path d="M76.7539 157.302H97.9902V117.871H76.7539V157.302Z" fill="#E6E6E6"/>
<path d="M80.7859 157.302H76.75V153.617H85.0139L80.7859 157.302Z" fill="#F0F0F0"/>
<path d="M191.955 157.302H213.191V117.871H191.955V157.302Z" fill="#E6E6E6"/>
<path d="M76.755 155.674L195.477 155.674V117.876L76.755 117.876V155.674Z" fill="#F0F0F0"/>
<path d="M191.441 157.302H195.472V153.617H187.213L191.441 157.302Z" fill="#F0F0F0"/>
<path d="M192.109 121.297V135.711H80.1615V121.297H192.109ZM192.363 121.042H79.8828V135.97H192.344V121.042H192.363Z" fill="#FAFAFA"/>
<path d="M192.109 137.82V152.233H80.1615V137.82H192.109ZM192.363 137.565H79.8828V152.503H192.344V137.565H192.363Z" fill="#FAFAFA"/>
<path d="M125.757 122.517H146.465C146.661 122.517 146.855 122.478 147.036 122.403C147.217 122.328 147.381 122.218 147.52 122.079C147.658 121.94 147.768 121.776 147.842 121.594C147.917 121.413 147.955 121.219 147.954 121.023H124.268C124.267 121.219 124.305 121.413 124.38 121.594C124.454 121.776 124.564 121.94 124.702 122.079C124.841 122.218 125.005 122.328 125.186 122.403C125.367 122.478 125.561 122.517 125.757 122.517Z" fill="#FAFAFA"/>
<path d="M125.757 139.054H146.465C146.66 139.054 146.854 139.016 147.035 138.941C147.215 138.866 147.38 138.757 147.518 138.618C147.656 138.48 147.766 138.316 147.841 138.135C147.916 137.954 147.954 137.761 147.954 137.565H124.268C124.268 137.96 124.425 138.339 124.704 138.618C124.983 138.898 125.362 139.054 125.757 139.054Z" fill="#FAFAFA"/>
<path d="M120.999 179C172.448 179 214.155 176.565 214.155 173.561C214.155 170.558 172.448 168.123 120.999 168.123C69.5503 168.123 27.8428 170.558 27.8428 173.561C27.8428 176.565 69.5503 179 120.999 179Z" fill="#F5F5F5"/>
<path d="M64.2616 63.2527L63.834 63.0317C67.5665 55.7442 72.579 49.1873 78.6321 43.674L78.9588 44.0295C72.9471 49.5045 67.9688 56.0158 64.2616 63.2527Z" fill="#406EFF"/>
<path d="M58.2461 80.4052L57.7656 80.3091C58.4611 76.9116 59.4152 73.5723 60.6196 70.3203L61.0712 70.4885C59.8765 73.7167 58.932 77.032 58.2461 80.4052Z" fill="#406EFF"/>
<path opacity="0.9" d="M162.79 132.316C184.009 111.097 184.009 76.6937 162.79 55.4745C141.57 34.2553 107.167 34.2553 85.9481 55.4745C64.7289 76.6937 64.7289 111.097 85.9481 132.316C107.167 153.535 141.57 153.535 162.79 132.316Z" fill="#FAFAFA"/>
<g opacity="0.4">
<path d="M85.918 124.285H73.1426L75.6121 118.222H83.4484L85.918 124.285Z" fill="#406EFF"/>
<path opacity="0.2" d="M85.918 124.285H73.1426L75.6121 118.222H83.4484L85.918 124.285Z" fill="#FAFAFA"/>
<path d="M105.334 124.285H85.9188L83.4492 118.222H102.865L105.334 124.285Z" fill="#406EFF"/>
<path opacity="0.3" d="M105.334 124.285H85.9188L83.4492 118.222H102.865L105.334 124.285Z" fill="#260060"/>
<path d="M102.226 124.285H89.4453L91.9149 118.222H99.756L102.226 124.285Z" fill="#406EFF"/>
<path opacity="0.2" d="M102.226 124.285H89.4453L91.9149 118.222H99.756L102.226 124.285Z" fill="#FAFAFA"/>
<path d="M121.634 124.285H102.223L99.7539 118.222H119.164L121.634 124.285Z" fill="#406EFF"/>
<path opacity="0.3" d="M121.634 124.285H102.223L99.7539 118.222H119.164L121.634 124.285Z" fill="#260060"/>
<path d="M118.525 124.285H105.75L108.22 118.222H116.056L118.525 124.285Z" fill="#406EFF"/>
<path opacity="0.2" d="M118.525 124.285H105.75L108.22 118.222H116.056L118.525 124.285Z" fill="#FAFAFA"/>
<path d="M137.937 124.285H118.526L116.057 118.222H135.472L137.937 124.285Z" fill="#406EFF"/>
<path opacity="0.3" d="M137.937 124.285H118.526L116.057 118.222H135.472L137.937 124.285Z" fill="#260060"/>
<path d="M134.828 124.285H122.053L124.522 118.222H132.359L134.828 124.285Z" fill="#406EFF"/>
<path opacity="0.2" d="M134.828 124.285H122.053L124.522 118.222H132.359L134.828 124.285Z" fill="#FAFAFA"/>
<path d="M154.244 124.285H134.829L132.359 118.222H151.775L154.244 124.285Z" fill="#406EFF"/>
<path opacity="0.3" d="M154.244 124.285H134.829L132.359 118.222H151.775L154.244 124.285Z" fill="#260060"/>
<path d="M151.136 124.285H138.355L140.825 118.222H148.666L151.136 124.285Z" fill="#406EFF"/>
<path opacity="0.2" d="M151.136 124.285H138.355L140.825 118.222H148.666L151.136 124.285Z" fill="#FAFAFA"/>
<path d="M161.494 124.285C162.112 122.277 162.673 120.256 163.176 118.222H148.666L151.136 124.285H161.494Z" fill="#406EFF"/>
<path opacity="0.3" d="M161.494 124.285C162.112 122.277 162.673 120.256 163.176 118.222H148.666L151.136 124.285H161.494Z" fill="#260060"/>
<path d="M163.176 118.222H157.132L154.662 124.285H161.494C162.116 122.277 162.676 120.256 163.176 118.222Z" fill="#406EFF"/>
<path opacity="0.2" d="M163.176 118.222H157.132L154.662 124.285H161.494C162.116 122.277 162.676 120.256 163.176 118.222Z" fill="#FAFAFA"/>
<path d="M90.9013 118.222H78.1211L80.5907 112.154H88.4318L90.9013 118.222Z" fill="#406EFF"/>
<path opacity="0.2" d="M90.9013 118.222H78.1211L80.5907 112.154H88.4318L90.9013 118.222Z" fill="#FAFAFA"/>
<path d="M110.312 118.222H90.9012L88.4316 112.154H107.842L110.312 118.222Z" fill="#406EFF"/>
<path opacity="0.3" d="M110.312 118.222H90.9012L88.4316 112.154H107.842L110.312 118.222Z" fill="#260060"/>
<path d="M107.203 118.222H94.4277L96.8973 112.154H104.734L107.203 118.222Z" fill="#406EFF"/>
<path opacity="0.2" d="M107.203 118.222H94.4277L96.8973 112.154H104.734L107.203 118.222Z" fill="#FAFAFA"/>
<path d="M126.613 118.222H107.202L104.732 112.154H124.148L126.613 118.222Z" fill="#406EFF"/>
<path opacity="0.3" d="M126.613 118.222H107.202L104.732 112.154H124.148L126.613 118.222Z" fill="#260060"/>
<path d="M123.504 118.222H110.729L113.198 112.154H121.034L123.504 118.222Z" fill="#406EFF"/>
<path opacity="0.2" d="M123.504 118.222H110.729L113.198 112.154H121.034L123.504 118.222Z" fill="#FAFAFA"/>
<path d="M142.92 118.222H123.505L121.035 112.154H140.451L142.92 118.222Z" fill="#406EFF"/>
<path opacity="0.3" d="M142.92 118.222H123.505L121.035 112.154H140.451L142.92 118.222Z" fill="#260060"/>
<path d="M139.811 118.222H127.031L129.501 112.154H137.342L139.811 118.222Z" fill="#406EFF"/>
<path opacity="0.2" d="M139.811 118.222H127.031L129.501 112.154H137.342L139.811 118.222Z" fill="#FAFAFA"/>
<path d="M159.222 118.222H139.811L137.342 112.154H156.752L159.222 118.222Z" fill="#406EFF"/>
<path opacity="0.3" d="M159.222 118.222H139.811L137.342 112.154H156.752L159.222 118.222Z" fill="#260060"/>
<path d="M156.113 118.222H143.338L145.807 112.154H153.644L156.113 118.222Z" fill="#406EFF"/>
<path opacity="0.2" d="M156.113 118.222H143.338L145.807 112.154H153.644L156.113 118.222Z" fill="#FAFAFA"/>
<path d="M163.176 118.222C163.657 116.209 164.113 114.191 164.488 112.154H153.668L156.138 118.222H163.176Z" fill="#406EFF"/>
<path opacity="0.3" d="M163.176 118.222C163.657 116.209 164.113 114.191 164.488 112.154H153.668L156.138 118.222H163.176Z" fill="#260060"/>
<path d="M164.488 112.154H162.11L159.641 118.222H163.177C163.672 116.209 164.114 114.191 164.488 112.154Z" fill="#406EFF"/>
<path opacity="0.2" d="M164.488 112.154H162.11L159.641 118.222H163.177C163.672 116.209 164.114 114.191 164.488 112.154Z" fill="#FAFAFA"/>
<path d="M95.168 112.154H82.3926L84.8621 106.091H92.6984L95.168 112.154Z" fill="#406EFF"/>
<path opacity="0.2" d="M95.168 112.154H82.3926L84.8621 106.091H92.6984L95.168 112.154Z" fill="#FAFAFA"/>
<path d="M114.582 112.154H95.1668L92.6973 106.091H112.113L114.582 112.154Z" fill="#406EFF"/>
<path opacity="0.3" d="M114.582 112.154H95.1668L92.6973 106.091H112.113L114.582 112.154Z" fill="#260060"/>
<path d="M111.474 112.154H98.6934L101.163 106.091H108.999L111.474 112.154Z" fill="#406EFF"/>
<path opacity="0.2" d="M111.474 112.154H98.6934L101.163 106.091H108.999L111.474 112.154Z" fill="#FAFAFA"/>
<path d="M130.885 112.154H111.474L109 106.091H128.415L130.885 112.154Z" fill="#406EFF"/>
<path opacity="0.3" d="M130.885 112.154H111.474L109 106.091H128.415L130.885 112.154Z" fill="#260060"/>
<path d="M127.775 112.154H115L117.47 106.091H125.306L127.775 112.154Z" fill="#406EFF"/>
<path opacity="0.2" d="M127.775 112.154H115L117.47 106.091H125.306L127.775 112.154Z" fill="#FAFAFA"/>
<path d="M147.187 112.154H127.776L125.307 106.091H144.717L147.187 112.154Z" fill="#406EFF"/>
<path opacity="0.3" d="M147.187 112.154H127.776L125.307 106.091H144.717L147.187 112.154Z" fill="#260060"/>
<path d="M144.078 112.154H131.303L133.772 106.091H141.609L144.078 112.154Z" fill="#406EFF"/>
<path opacity="0.2" d="M144.078 112.154H131.303L133.772 106.091H141.609L144.078 112.154Z" fill="#FAFAFA"/>
<path d="M163.492 112.154H144.077L141.607 106.091H161.023L163.492 112.154Z" fill="#406EFF"/>
<path opacity="0.3" d="M163.492 112.154H144.077L141.607 106.091H161.023L163.492 112.154Z" fill="#260060"/>
<path d="M160.384 112.154H147.604L150.073 106.091H157.914L160.384 112.154Z" fill="#406EFF"/>
<path opacity="0.2" d="M160.384 112.154H147.604L150.073 106.091H157.914L160.384 112.154Z" fill="#FAFAFA"/>
<path d="M164.489 112.154C164.863 110.146 165.184 108.125 165.45 106.091H157.916L160.395 112.154H164.489Z" fill="#406EFF"/>
<path opacity="0.3" d="M164.489 112.154C164.863 110.146 165.184 108.125 165.45 106.091H157.916L160.395 112.154H164.489Z" fill="#260060"/>
<path d="M164.916 109.684L163.912 112.154H164.489C164.642 111.334 164.785 110.511 164.916 109.684Z" fill="#406EFF"/>
<path opacity="0.2" d="M164.916 109.684L163.912 112.154H164.489C164.642 111.334 164.785 110.511 164.916 109.684Z" fill="#FAFAFA"/>
<path d="M100.145 106.09H87.3691L89.8387 100.027H97.6798L100.145 106.09Z" fill="#406EFF"/>
<path opacity="0.2" d="M100.145 106.09H87.3691L89.8387 100.027H97.6798L100.145 106.09Z" fill="#FAFAFA"/>
<path d="M119.56 106.09H100.144L97.6797 100.027H117.09L119.56 106.09Z" fill="#406EFF"/>
<path opacity="0.3" d="M119.56 106.09H100.144L97.6797 100.027H117.09L119.56 106.09Z" fill="#260060"/>
<path d="M116.451 106.09H103.676L106.145 100.027H113.982L116.451 106.09Z" fill="#406EFF"/>
<path opacity="0.2" d="M116.451 106.09H103.676L106.145 100.027H113.982L116.451 106.09Z" fill="#FAFAFA"/>
<path d="M135.863 106.09H116.452L113.982 100.027H133.398L135.863 106.09Z" fill="#406EFF"/>
<path opacity="0.3" d="M135.863 106.09H116.452L113.982 100.027H133.398L135.863 106.09Z" fill="#260060"/>
<path d="M132.754 106.09H119.979L122.448 100.027H130.284L132.754 106.09Z" fill="#406EFF"/>
<path opacity="0.2" d="M132.754 106.09H119.979L122.448 100.027H130.284L132.754 106.09Z" fill="#FAFAFA"/>
<path d="M152.168 106.09H132.753L130.283 100.027H149.699L152.168 106.09Z" fill="#406EFF"/>
<path opacity="0.3" d="M152.168 106.09H132.753L130.283 100.027H149.699L152.168 106.09Z" fill="#260060"/>
<path d="M149.06 106.09H136.279L138.749 100.027H146.59L149.06 106.09Z" fill="#406EFF"/>
<path opacity="0.2" d="M149.06 106.09H136.279L138.749 100.027H146.59L149.06 106.09Z" fill="#FAFAFA"/>
<path d="M165.431 106.09C165.68 104.076 165.865 102.055 165.983 100.027H146.592L149.061 106.09H165.431Z" fill="#406EFF"/>
<path opacity="0.3" d="M165.431 106.09C165.68 104.076 165.865 102.055 165.983 100.027H146.592L149.061 106.09H165.431Z" fill="#260060"/>
<path d="M165.361 106.09H152.586L155.056 100.027H162.892L165.361 106.09Z" fill="#406EFF"/>
<path opacity="0.2" d="M165.361 106.09H152.586L155.056 100.027H162.892L165.361 106.09Z" fill="#FAFAFA"/>
<path d="M165.429 106.09C165.679 104.076 165.863 102.055 165.982 100.027H162.893L165.362 106.09H165.429Z" fill="#406EFF"/>
<path opacity="0.3" d="M165.429 106.09C165.679 104.076 165.863 102.055 165.982 100.027H162.893L165.362 106.09H165.429Z" fill="#260060"/>
<path d="M97.3147 148.544H101.677L99.2077 142.481H89.5312C92.2784 144.298 94.8807 146.325 97.3147 148.544Z" fill="#406EFF"/>
<path opacity="0.3" d="M97.3147 148.544H101.677L99.2077 142.481H89.5312C92.2784 144.298 94.8807 146.325 97.3147 148.544Z" fill="#260060"/>
<path d="M97.3147 148.544H98.5687L96.0991 142.481H89.5312C92.2784 144.298 94.8807 146.325 97.3147 148.544Z" fill="#406EFF"/>
<path opacity="0.2" d="M97.3147 148.544H98.5687L96.0991 142.481H89.5312C92.2784 144.298 94.8807 146.325 97.3147 148.544Z" fill="#FAFAFA"/>
<path d="M117.98 148.544H98.5692L96.0996 142.481H115.51L117.98 148.544Z" fill="#406EFF"/>
<path opacity="0.3" d="M117.98 148.544H98.5692L96.0996 142.481H115.51L117.98 148.544Z" fill="#260060"/>
<path d="M114.869 148.544H102.094L104.563 142.481H112.4L114.869 148.544Z" fill="#406EFF"/>
<path opacity="0.2" d="M114.869 148.544H102.094L104.563 142.481H112.4L114.869 148.544Z" fill="#FAFAFA"/>
<path d="M134.282 148.544H114.872L112.402 142.481H131.813L134.282 148.544Z" fill="#406EFF"/>
<path opacity="0.3" d="M134.282 148.544H114.872L112.402 142.481H131.813L134.282 148.544Z" fill="#260060"/>
<path d="M131.172 148.544H118.396L120.866 142.481H128.702L131.172 148.544Z" fill="#406EFF"/>
<path opacity="0.2" d="M131.172 148.544H118.396L120.866 142.481H128.702L131.172 148.544Z" fill="#FAFAFA"/>
<path d="M150.482 148.285L148.118 142.481H128.684L131.153 148.544H150.194C150.304 148.462 150.391 148.371 150.482 148.285Z" fill="#406EFF"/>
<path opacity="0.3" d="M150.482 148.285L148.118 142.481H128.684L131.153 148.544H150.194C150.304 148.462 150.391 148.371 150.482 148.285Z" fill="#260060"/>
<path d="M147.479 148.544H134.699L137.169 142.481H145.01L147.479 148.544Z" fill="#406EFF"/>
<path opacity="0.2" d="M147.479 148.544H134.699L137.169 142.481H145.01L147.479 148.544Z" fill="#FAFAFA"/>
<path d="M150.213 148.544C152.002 146.781 153.485 144.731 154.6 142.481H145.02L147.489 148.544H150.213Z" fill="#406EFF"/>
<path opacity="0.3" d="M150.213 148.544C152.002 146.781 153.485 144.731 154.6 142.481H145.02L147.489 148.544H150.213Z" fill="#260060"/>
<path d="M154.6 142.481H153.476L151.611 147.055C152.768 145.641 153.77 144.108 154.6 142.481Z" fill="#406EFF"/>
<path opacity="0.2" d="M154.6 142.481H153.476L151.611 147.055C152.768 145.641 153.77 144.108 154.6 142.481Z" fill="#FAFAFA"/>
<path d="M82.2324 137.095C84.5434 139.05 87.037 140.756 89.5305 142.481H90.3521L87.8826 136.417H81.4492C81.7087 136.643 81.9681 136.874 82.2324 137.095Z" fill="#406EFF"/>
<path opacity="0.3" d="M82.2324 137.095C84.5434 139.05 87.037 140.756 89.5305 142.481H90.3521L87.8826 136.417H81.4492C81.7087 136.643 81.9681 136.874 82.2324 137.095Z" fill="#260060"/>
<path d="M82.2324 137.095C83.5488 138.209 84.9277 139.242 86.3307 140.242L84.774 136.398H81.4492C81.7087 136.643 81.9681 136.874 82.2324 137.095Z" fill="#406EFF"/>
<path opacity="0.2" d="M82.2324 137.095C83.5488 138.209 84.9277 139.242 86.3307 140.242L84.774 136.398H81.4492C81.7087 136.643 81.9681 136.874 82.2324 137.095Z" fill="#FAFAFA"/>
<path d="M89.5309 142.481H106.654L104.18 136.417H84.7695L86.3262 140.261C87.388 141.001 88.4643 141.736 89.5309 142.481Z" fill="#406EFF"/>
<path opacity="0.3" d="M89.5309 142.481H106.654L104.18 136.417H84.7695L86.3262 140.261C87.388 141.001 88.4643 141.736 89.5309 142.481Z" fill="#260060"/>
<path d="M103.547 142.481H90.7715L93.241 136.417H101.077L103.547 142.481Z" fill="#406EFF"/>
<path opacity="0.2" d="M103.547 142.481H90.7715L93.241 136.417H101.077L103.547 142.481Z" fill="#FAFAFA"/>
<path d="M122.961 142.481H103.546L101.076 136.417H120.492L122.961 142.481Z" fill="#406EFF"/>
<path opacity="0.3" d="M122.961 142.481H103.546L101.076 136.417H120.492L122.961 142.481Z" fill="#260060"/>
<path d="M119.85 142.481H107.074L109.544 136.417H117.38L119.85 142.481Z" fill="#406EFF"/>
<path opacity="0.2" d="M119.85 142.481H107.074L109.544 136.417H117.38L119.85 142.481Z" fill="#FAFAFA"/>
<path d="M139.264 142.481H119.848L117.379 136.417H136.794L139.264 142.481Z" fill="#406EFF"/>
<path opacity="0.3" d="M139.264 142.481H119.848L117.379 136.417H136.794L139.264 142.481Z" fill="#260060"/>
<path d="M136.154 142.481H123.379L125.848 136.417H133.685L136.154 142.481Z" fill="#406EFF"/>
<path opacity="0.2" d="M136.154 142.481H123.379L125.848 136.417H133.685L136.154 142.481Z" fill="#FAFAFA"/>
<path d="M155.133 141.424L153.096 136.417H133.686L136.155 142.481H154.6C154.787 142.13 154.96 141.779 155.133 141.424Z" fill="#406EFF"/>
<path opacity="0.3" d="M155.133 141.424L153.096 136.417H133.686L136.155 142.481H154.6C154.787 142.13 154.96 141.779 155.133 141.424Z" fill="#260060"/>
<path d="M152.457 142.481H139.682L142.151 136.417H149.987L152.457 142.481Z" fill="#406EFF"/>
<path opacity="0.2" d="M152.457 142.481H139.682L142.151 136.417H149.987L152.457 142.481Z" fill="#FAFAFA"/>
<path d="M154.601 142.481C155.606 140.515 156.491 138.49 157.253 136.417H149.988L152.458 142.481H154.601Z" fill="#406EFF"/>
<path opacity="0.3" d="M154.601 142.481C155.606 140.515 156.491 138.49 157.253 136.417H149.988L152.458 142.481H154.601Z" fill="#260060"/>
<path d="M81.4501 136.417H94.6195L92.1692 130.349H75.627C77.3991 132.527 79.3467 134.557 81.4501 136.417Z" fill="#406EFF"/>
<path opacity="0.3" d="M81.4501 136.417H94.6195L92.1692 130.349H75.627C77.3991 132.527 79.3467 134.557 81.4501 136.417Z" fill="#260060"/>
<path d="M81.4504 136.417H91.5112L89.0416 130.349H81.2053L79.4805 134.582C80.1179 135.213 80.7745 135.825 81.4504 136.417Z" fill="#406EFF"/>
<path opacity="0.2" d="M81.4504 136.417H91.5112L89.0416 130.349H81.2053L79.4805 134.582C80.1179 135.213 80.7745 135.825 81.4504 136.417Z" fill="#FAFAFA"/>
<path d="M110.926 136.417H91.5106L89.041 130.349H108.456L110.926 136.417Z" fill="#406EFF"/>
<path opacity="0.3" d="M110.926 136.417H91.5106L89.041 130.349H108.456L110.926 136.417Z" fill="#260060"/>
<path d="M107.813 136.417H95.0371L97.5067 130.349H105.348L107.813 136.417Z" fill="#406EFF"/>
<path opacity="0.2" d="M107.813 136.417H95.0371L97.5067 130.349H105.348L107.813 136.417Z" fill="#FAFAFA"/>
<path d="M127.228 136.417H107.812L105.348 130.349H124.758L127.228 136.417Z" fill="#406EFF"/>
<path opacity="0.3" d="M127.228 136.417H107.812L105.348 130.349H124.758L127.228 136.417Z" fill="#260060"/>
<path d="M124.119 136.417H111.344L113.813 130.349H121.65L124.119 136.417Z" fill="#406EFF"/>
<path opacity="0.2" d="M124.119 136.417H111.344L113.813 130.349H121.65L124.119 136.417Z" fill="#FAFAFA"/>
<path d="M143.531 136.417H124.12L121.65 130.349H141.061L143.531 136.417Z" fill="#406EFF"/>
<path opacity="0.3" d="M143.531 136.417H124.12L121.65 130.349H141.061L143.531 136.417Z" fill="#260060"/>
<path d="M140.422 136.417H127.646L130.116 130.349H137.952L140.422 136.417Z" fill="#406EFF"/>
<path opacity="0.2" d="M140.422 136.417H127.646L130.116 130.349H137.952L140.422 136.417Z" fill="#FAFAFA"/>
<path d="M158.472 133.059L157.371 130.349H137.951L140.421 136.417H157.237C157.684 135.274 158.082 134.145 158.472 133.059Z" fill="#406EFF"/>
<path opacity="0.3" d="M158.472 133.059L157.371 130.349H137.951L140.421 136.417H157.237C157.684 135.274 158.082 134.145 158.472 133.059Z" fill="#260060"/>
<path d="M156.727 136.417H143.947L146.417 130.349H154.258L156.727 136.417Z" fill="#406EFF"/>
<path opacity="0.2" d="M156.727 136.417H143.947L146.417 130.349H154.258L156.727 136.417Z" fill="#FAFAFA"/>
<path d="M157.251 136.417C158.044 134.318 158.736 132.266 159.408 130.45C159.417 130.416 159.429 130.382 159.442 130.349H154.258L156.727 136.417H157.251Z" fill="#406EFF"/>
<path opacity="0.3" d="M157.251 136.417C158.044 134.318 158.736 132.266 159.408 130.45C159.417 130.416 159.429 130.382 159.442 130.349H154.258L156.727 136.417H157.251Z" fill="#260060"/>
<path d="M75.6266 130.349H80.1862L77.7166 124.286H71.3457C72.6304 126.403 74.0608 128.429 75.6266 130.349Z" fill="#406EFF"/>
<path opacity="0.2" d="M75.6266 130.349H80.1862L77.7166 124.286H71.3457C72.6304 126.403 74.0608 128.429 75.6266 130.349Z" fill="#FAFAFA"/>
<path d="M99.6017 130.349H80.1864L77.7168 124.286H97.1322L99.6017 130.349Z" fill="#406EFF"/>
<path opacity="0.3" d="M99.6017 130.349H80.1864L77.7168 124.286H97.1322L99.6017 130.349Z" fill="#260060"/>
<path d="M96.4931 130.349H83.7129L86.1825 124.286H94.0236L96.4931 130.349Z" fill="#406EFF"/>
<path opacity="0.2" d="M96.4931 130.349H83.7129L86.1825 124.286H94.0236L96.4931 130.349Z" fill="#FAFAFA"/>
<path d="M115.904 130.349H96.493L94.0234 124.286H113.434L115.904 130.349Z" fill="#406EFF"/>
<path opacity="0.3" d="M115.904 130.349H96.493L94.0234 124.286H113.434L115.904 130.349Z" fill="#260060"/>
<path d="M112.795 130.349H100.02L102.489 124.286H110.325L112.795 130.349Z" fill="#406EFF"/>
<path opacity="0.2" d="M112.795 130.349H100.02L102.489 124.286H110.325L112.795 130.349Z" fill="#FAFAFA"/>
<path d="M132.204 130.349H112.794L110.324 124.286H129.735L132.204 130.349Z" fill="#406EFF"/>
<path opacity="0.3" d="M132.204 130.349H112.794L110.324 124.286H129.735L132.204 130.349Z" fill="#260060"/>
<path d="M129.096 130.349H116.32L118.79 124.286H126.626L129.096 130.349Z" fill="#406EFF"/>
<path opacity="0.2" d="M129.096 130.349H116.32L118.79 124.286H126.626L129.096 130.349Z" fill="#FAFAFA"/>
<path d="M148.512 130.349H129.097L126.627 124.286H146.042L148.512 130.349Z" fill="#406EFF"/>
<path opacity="0.3" d="M148.512 130.349H129.097L126.627 124.286H146.042L148.512 130.349Z" fill="#260060"/>
<path d="M145.403 130.349H132.623L135.093 124.286H142.934L145.403 130.349Z" fill="#406EFF"/>
<path opacity="0.2" d="M145.403 130.349H132.623L135.093 124.286H142.934L145.403 130.349Z" fill="#FAFAFA"/>
<path d="M159.435 130.349C160.174 128.344 160.858 126.323 161.486 124.286H142.936L145.405 130.349H159.435Z" fill="#406EFF"/>
<path opacity="0.3" d="M159.435 130.349C160.174 128.344 160.858 126.323 161.486 124.286H142.936L145.405 130.349H159.435Z" fill="#260060"/>
<path d="M160.49 127.37L159.236 124.286H151.399L148.93 130.349H159.433C159.807 129.364 160.153 128.369 160.49 127.37Z" fill="#406EFF"/>
<path opacity="0.2" d="M160.49 127.37L159.236 124.286H151.399L148.93 130.349H159.433C159.807 129.364 160.153 128.369 160.49 127.37Z" fill="#FAFAFA"/>
<path d="M161.494 124.286H159.236L160.49 127.37C160.843 126.348 161.177 125.32 161.494 124.286Z" fill="#406EFF"/>
<path opacity="0.3" d="M161.494 124.286H159.236L160.49 127.37C160.843 126.348 161.177 125.32 161.494 124.286Z" fill="#260060"/>
</g>
<path d="M124.45 27.5835C111.324 27.5835 98.4928 31.4758 87.579 38.7682C76.6652 46.0605 68.1589 56.4255 63.1358 68.5522C58.1127 80.679 56.7985 94.023 59.3592 106.897C61.92 119.77 68.2407 131.596 77.5221 140.877C86.8036 150.159 98.6288 156.479 111.503 159.04C124.376 161.601 137.72 160.287 149.847 155.263C161.974 150.24 172.339 141.734 179.631 130.82C186.923 119.906 190.816 107.075 190.816 93.9494C190.816 76.348 183.824 59.4676 171.378 47.0216C158.932 34.5756 142.051 27.5835 124.45 27.5835ZM124.363 148.232C113.617 148.231 103.112 145.043 94.1777 139.072C85.243 133.101 78.2794 124.615 74.1677 114.686C70.0559 104.758 68.9806 93.833 71.0777 83.2933C73.1747 72.7536 78.35 63.0725 85.9491 55.4741C93.5482 47.8756 103.23 42.7012 113.77 40.605C124.31 38.5089 135.234 39.5852 145.162 43.6978C155.091 47.8105 163.576 54.7747 169.547 63.71C175.517 72.6453 178.703 83.1502 178.703 93.8965C178.703 101.032 177.298 108.098 174.567 114.691C171.836 121.283 167.833 127.273 162.787 132.319C157.741 137.365 151.751 141.367 145.158 144.097C138.565 146.827 131.499 148.232 124.363 148.232Z" fill="#406EFF"/>
<path opacity="0.4" d="M124.448 156.899C159.156 156.899 187.388 128.658 187.388 93.959C187.388 59.2602 159.147 31.0188 124.448 31.0188C89.7492 31.0188 61.5078 59.2554 61.5078 93.959C61.5078 128.663 89.7348 156.899 124.448 156.899ZM124.448 31.4993C141.007 31.5209 156.881 38.1084 168.59 49.8172C180.299 61.526 186.886 77.4003 186.908 93.959C186.908 128.403 158.883 156.419 124.448 156.419C90.0135 156.419 61.9883 128.394 61.9883 93.959C61.9883 59.5245 89.9991 31.48 124.448 31.48V31.4993Z" fill="#FAFAFA"/>
<path d="M107.633 50.4484C110.352 51.0922 113.139 51.7361 115.892 52.3222C118.645 52.9084 121.412 53.4417 124.122 53.8068L125.126 53.9221L125.371 53.9462H125.333C125.333 53.9462 125.357 53.9462 125.41 53.9462C125.843 53.8358 126.254 53.6522 126.625 53.4033C127.704 52.6944 128.717 51.8905 129.652 51.001C131.651 49.1512 133.602 47.0564 135.48 44.9712L137.676 46.4942C136.238 49.1018 134.556 51.5678 132.655 53.8597C131.65 55.0909 130.515 56.209 129.268 57.1941C128.491 57.8176 127.607 58.2932 126.659 58.597C126.346 58.6921 126.024 58.7565 125.698 58.7892C125.506 58.8015 125.313 58.8015 125.121 58.7892H124.828L123.685 58.7316C120.728 58.5125 117.786 58.1259 114.873 57.5736C111.99 57.0451 109.165 56.4205 106.307 55.6518L107.633 50.4484Z" fill="#7F3E3B"/>
<path d="M103.511 55.3299C105.432 58.1069 116.964 59.1735 116.964 59.1735L117.67 51.7841C114.734 50.7555 111.713 49.987 108.642 49.4875C100.498 48.3248 101.416 52.2838 103.511 55.3299Z" fill="#406EFF"/>
<path opacity="0.2" d="M103.511 55.3299C105.432 58.1069 116.964 59.1735 116.964 59.1735L117.67 51.7841C114.734 50.7555 111.713 49.987 108.642 49.4875C100.498 48.3248 101.416 52.2838 103.511 55.3299Z" fill="white"/>
<path d="M135.027 45.8936L135.945 42.4919L139.111 43.8516C139.111 43.8516 137.776 47.5176 136.57 47.335L135.027 45.8936Z" fill="#7F3E3B"/>
<path d="M138.561 40.3875L141.179 40.2241L139.114 43.8516L135.947 42.4919L138.561 40.3875Z" fill="#7F3E3B"/>
<path d="M111.256 50.309C111.256 50.309 115.83 61.0665 112.534 81.0968H93.4791C93.2484 78.1708 94.5889 63.906 91.293 50.1264C93.3886 49.7184 95.5088 49.4487 97.6398 49.3192C100.338 49.1654 103.042 49.1654 105.74 49.3192C107.601 49.5082 109.445 49.8391 111.256 50.309Z" fill="#406EFF"/>
<path opacity="0.2" d="M111.256 50.309C111.256 50.309 115.83 61.0665 112.534 81.0968H93.4791C93.2484 78.1708 94.5889 63.906 91.293 50.1264C93.3886 49.7184 95.5088 49.4487 97.6398 49.3192C100.338 49.1654 103.042 49.1654 105.74 49.3192C107.601 49.5082 109.445 49.8391 111.256 50.309Z" fill="white"/>
<path opacity="0.3" d="M91.8887 52.8842C92.78 57.5996 93.3069 62.3767 93.4646 67.173C94.1626 64.3629 94.635 61.5014 94.8771 58.616C95.0789 55.421 93.8393 53.3982 91.8887 52.8842Z" fill="#260060"/>
<path d="M105.572 65.5684C103.88 63.7091 100.974 60.0047 100.07 56.6751L104.606 54.2728L108.829 56.4349C108.786 59.2648 107.277 63.0989 106.196 65.4339C106.057 65.7174 105.769 65.7894 105.572 65.5684Z" fill="#FAFAFA"/>
<path d="M98.1289 40.2002C98.7295 42.8091 99.4021 47.5801 97.6484 49.3289C97.6484 49.3289 98.4124 51.4862 103.255 51.4862C108.579 51.4862 105.749 49.3289 105.749 49.3289C102.818 48.6371 102.818 46.4798 103.255 44.4571L98.1289 40.2002Z" fill="#7F3E3B"/>
<path opacity="0.2" d="M100.213 41.9344L103.245 44.4424C103.136 44.9161 103.068 45.3984 103.043 45.8838C101.929 45.7253 100.362 44.5049 100.204 43.3422C100.119 42.8765 100.122 42.399 100.213 41.9344Z" fill="#260060"/>
<path d="M105.961 38.7107C106.749 38.038 107.105 34.0166 105.553 32.0899C104.001 30.1633 102.67 34.8333 102.67 34.8333C102.67 34.8333 103.381 40.9208 105.961 38.7107Z" fill="#263238"/>
<path d="M96.9753 37.4759C98.0611 40.8392 98.5224 42.8715 100.713 44.2504C101.42 44.7047 102.238 44.9571 103.077 44.9802C103.917 45.0034 104.747 44.7965 105.478 44.3819C106.209 43.9673 106.812 43.3608 107.223 42.6279C107.634 41.8951 107.837 41.0639 107.81 40.2242C107.766 36.9907 105.998 32.0131 102.275 31.3933C101.473 31.2373 100.643 31.295 99.8704 31.5606C99.0975 31.8262 98.4081 32.2904 97.8712 32.9066C97.3343 33.5228 96.9689 34.2694 96.8117 35.0714C96.6544 35.8734 96.7109 36.7026 96.9753 37.4759Z" fill="#7F3E3B"/>
<path d="M106.047 30.5284C106.159 30.3241 106.214 30.0934 106.205 29.8606C106.203 29.5806 106.112 29.3086 105.946 29.0837C105.779 28.8589 105.545 28.6928 105.278 28.6094C105.011 28.526 104.724 28.5297 104.459 28.6198C104.194 28.71 103.964 28.882 103.803 29.1111C103.531 28.799 103.192 28.551 102.813 28.3848C102.433 28.2187 102.022 28.1386 101.607 28.1501C101.172 28.1648 100.745 28.2816 100.363 28.4913C100.116 28.2808 99.7986 28.171 99.4742 28.1838C99.1591 28.1951 98.8583 28.3184 98.6258 28.5315C98.3934 28.7446 98.2445 29.0335 98.2058 29.3465C98.0708 29.3248 97.9341 29.3151 97.7974 29.3177C97.232 29.3377 96.6975 29.5811 96.3112 29.9944C95.9248 30.4078 95.7181 30.9575 95.7363 31.523C95.7363 31.523 95.7363 31.523 95.7363 31.5518C95.6547 31.5468 95.5728 31.5468 95.4912 31.5518C95.2634 31.5599 95.0394 31.6127 94.832 31.7074C94.6247 31.8021 94.438 31.9368 94.2827 32.1037C94.1274 32.2706 94.0066 32.4664 93.927 32.6801C93.8475 32.8937 93.8109 33.1209 93.8192 33.3487V33.3775C93.6022 33.4953 93.4227 33.6718 93.3013 33.8867C93.1798 34.1017 93.1212 34.3465 93.1322 34.5931C93.1421 34.8556 93.2289 35.1093 93.3818 35.3228C93.5347 35.5364 93.7469 35.7003 93.9922 35.7943C94.0251 36.2012 94.2017 36.5832 94.4904 36.872C94.7791 37.1607 95.1611 37.3373 95.5681 37.3702C95.7555 39.0518 96.3609 41.6559 98.3259 40.3106C99.0754 39.7965 99.7673 36.6783 99.0226 34.5162C99.0803 34.5162 99.1427 34.5162 99.2052 34.5162C99.5296 34.5042 99.8469 34.4178 100.133 34.2637C100.418 34.1096 100.665 33.8919 100.853 33.6274C101.264 33.7626 101.701 33.8012 102.129 33.7404C102.557 33.6796 102.966 33.5209 103.323 33.2767C103.477 33.3306 103.64 33.3566 103.803 33.3535C104.027 33.3433 104.245 33.2773 104.437 33.1613C104.71 33.3469 105.035 33.4427 105.365 33.4352C105.708 33.4246 106.038 33.301 106.303 33.0834C106.569 32.8658 106.755 32.5666 106.833 32.2322C106.911 31.8978 106.876 31.5471 106.734 31.2346C106.592 30.9221 106.35 30.6654 106.047 30.5044V30.5284Z" fill="#263238"/>
<path d="M96.3948 41.579C97.0392 42.2052 97.8987 42.5611 98.7971 42.5736C99.9839 42.5736 100.239 41.4493 99.5995 40.5076C99.0326 39.6668 97.7353 38.6482 96.6879 39.0999C95.6405 39.5515 95.6069 40.8055 96.3948 41.579Z" fill="#7F3E3B"/>
<path d="M102.463 37.2836C102.53 37.5623 102.737 37.7641 102.943 37.716C103.15 37.668 103.217 37.4133 103.145 37.1347C103.073 36.856 102.866 36.6542 102.665 36.707C102.463 36.7599 102.391 36.9953 102.463 37.2836Z" fill="#263238"/>
<path d="M105.625 36.5869C105.697 36.8656 105.903 37.0674 106.105 37.0194C106.307 36.9713 106.379 36.7215 106.307 36.4428C106.235 36.1641 106.028 35.9623 105.827 36.0104C105.625 36.0584 105.562 36.3083 105.625 36.5869Z" fill="#263238"/>
<path d="M104.664 36.9473C105.22 37.7263 105.876 38.429 106.615 39.0373C106.454 39.2156 106.257 39.3566 106.036 39.4504C105.815 39.5442 105.576 39.5885 105.337 39.5802L104.664 36.9473Z" fill="#630F0F"/>
<path d="M104.12 40.594C103.535 40.5999 102.967 40.3953 102.52 40.0175C102.505 40.0022 102.496 39.9814 102.496 39.9598C102.496 39.9382 102.505 39.9175 102.52 39.9022C102.528 39.8939 102.537 39.8873 102.547 39.8827C102.558 39.8782 102.569 39.8759 102.58 39.8759C102.591 39.8759 102.602 39.8782 102.613 39.8827C102.623 39.8873 102.632 39.8939 102.64 39.9022C102.921 40.1308 103.251 40.2927 103.604 40.3759C103.956 40.4591 104.323 40.4614 104.677 40.3826C104.699 40.3782 104.721 40.3822 104.74 40.3938C104.759 40.4054 104.772 40.4238 104.778 40.4451C104.781 40.4562 104.781 40.4677 104.779 40.479C104.777 40.4902 104.773 40.501 104.767 40.5105C104.761 40.52 104.752 40.5281 104.743 40.5342C104.733 40.5403 104.722 40.5443 104.711 40.546C104.516 40.5846 104.318 40.6007 104.12 40.594Z" fill="#263238"/>
<path d="M101.204 36.4814C101.182 36.4859 101.159 36.4859 101.137 36.4814C101.117 36.473 101.098 36.4606 101.082 36.4448C101.067 36.429 101.054 36.4102 101.046 36.3895C101.038 36.3688 101.035 36.3467 101.035 36.3245C101.036 36.3023 101.041 36.2805 101.051 36.2604C101.153 36.0169 101.314 35.8022 101.518 35.6347C101.722 35.4673 101.964 35.3522 102.223 35.2994C102.267 35.2951 102.312 35.3075 102.347 35.3341C102.383 35.3608 102.407 35.3999 102.415 35.4436C102.421 35.488 102.409 35.5329 102.382 35.5688C102.355 35.6046 102.315 35.6286 102.271 35.6358C102.068 35.6816 101.879 35.7758 101.72 35.9105C101.561 36.0452 101.437 36.2163 101.358 36.4093C101.341 36.4339 101.318 36.4535 101.291 36.4662C101.264 36.4788 101.234 36.4841 101.204 36.4814Z" fill="#263238"/>
<path d="M106.705 35.2081C106.68 35.2083 106.655 35.2028 106.633 35.192C106.61 35.1811 106.59 35.1653 106.575 35.1457C106.44 34.9776 106.269 34.8419 106.074 34.7488C105.879 34.6557 105.666 34.6074 105.451 34.6076C105.406 34.6114 105.362 34.5973 105.328 34.5685C105.293 34.5397 105.272 34.4984 105.268 34.4538C105.264 34.4092 105.278 34.3649 105.307 34.3307C105.336 34.2964 105.377 34.2751 105.422 34.2712C105.692 34.2658 105.96 34.3222 106.205 34.4363C106.45 34.5504 106.665 34.7191 106.834 34.9295C106.863 34.9647 106.876 35.0096 106.871 35.0545C106.867 35.0993 106.845 35.1407 106.81 35.1697C106.781 35.1943 106.743 35.2078 106.705 35.2081Z" fill="#263238"/>
<path d="M95.0543 55.2528L94.3625 56.747C94.1319 57.2611 93.906 57.78 93.685 58.2989C93.243 59.3367 92.825 60.3889 92.4214 61.4363C92.0178 62.4837 91.6623 63.5407 91.3212 64.5977C90.98 65.6547 90.7158 66.707 90.4948 67.7544V67.8456V67.8168C90.4968 67.7912 90.4968 67.7655 90.4948 67.7399C90.4884 67.6868 90.4738 67.6349 90.4515 67.5862C90.4131 67.4949 90.3699 67.4757 90.3891 67.5285C90.564 67.7743 90.7903 67.9792 91.0521 68.1291C91.9143 68.655 92.833 69.0821 93.7907 69.4023C95.9351 70.1389 98.12 70.7517 100.335 71.2377L100.114 73.9042C97.6351 73.9839 95.1555 73.7906 92.7193 73.3277C91.3814 73.0855 90.081 72.6688 88.8516 72.0881C88.0533 71.7081 87.3355 71.1779 86.7376 70.5266C86.3294 70.0613 86.0218 69.5166 85.8343 68.9267C85.7324 68.5925 85.6711 68.2473 85.6518 67.8985C85.6421 67.7257 85.6421 67.5524 85.6518 67.3796L85.6758 67.1298V67C85.9955 64.4985 86.567 62.0357 87.3814 59.649C87.7722 58.4767 88.203 57.322 88.6738 56.1849C88.9141 55.6179 89.1543 55.0558 89.4186 54.4937C89.6828 53.9315 89.9375 53.3934 90.2498 52.7928L95.0543 55.2528Z" fill="#7F3E3B"/>
<path d="M91.2925 50.1264C87.9293 50.6069 84.4844 62.9595 84.4844 62.9595L92.5897 66.0441C92.5897 66.0441 94.6269 60.735 96.0202 56.6126C97.4808 52.2933 94.8863 49.5979 91.2925 50.1264Z" fill="#406EFF"/>
<path opacity="0.2" d="M91.2925 50.1264C87.9293 50.6069 84.4844 62.9595 84.4844 62.9595L92.5897 66.0441C92.5897 66.0441 94.6269 60.735 96.0202 56.6126C97.4808 52.2933 94.8863 49.5979 91.2925 50.1264Z" fill="white"/>
<path d="M96.4043 171.702H99.9693L100.431 163.452H96.8703L96.4043 171.702Z" fill="#7F3E3B"/>
<path opacity="0.2" d="M96.8652 163.452H100.43L100.19 167.704H96.625L96.8652 163.452Z" fill="#260060"/>
<path d="M100.157 171.289H96.1546C96.1214 171.287 96.0882 171.292 96.0568 171.303C96.0254 171.314 95.9966 171.331 95.972 171.353C95.9474 171.376 95.9275 171.403 95.9135 171.433C95.8994 171.463 95.8916 171.496 95.8904 171.529L95.6934 174.695C95.6927 174.778 95.7084 174.86 95.7394 174.936C95.7705 175.013 95.8163 175.083 95.8743 175.142C95.9323 175.201 96.0014 175.247 96.0775 175.28C96.1536 175.312 96.2353 175.329 96.318 175.329C97.7113 175.305 98.3791 175.224 100.162 175.224C101.243 175.224 105.845 175.339 107.34 175.339C108.834 175.339 108.781 173.859 108.161 173.725C105.317 173.124 101.8 172.283 100.791 171.505C100.61 171.363 100.387 171.287 100.157 171.289Z" fill="#263238"/>
<path d="M101.416 171.904C101.654 171.927 101.892 171.86 102.084 171.716C102.14 171.658 102.178 171.585 102.196 171.507C102.214 171.428 102.21 171.346 102.185 171.269C102.176 171.218 102.154 171.17 102.121 171.13C102.089 171.089 102.046 171.058 101.997 171.039C101.56 170.866 100.556 171.553 100.441 171.635C100.428 171.644 100.419 171.656 100.413 171.671C100.407 171.685 100.405 171.701 100.407 171.716C100.411 171.731 100.419 171.745 100.43 171.756C100.441 171.766 100.455 171.774 100.47 171.779C100.78 171.853 101.097 171.895 101.416 171.904ZM101.829 171.169C101.866 171.161 101.903 171.161 101.94 171.169C101.963 171.179 101.984 171.194 102 171.215C102.016 171.235 102.027 171.259 102.031 171.284C102.048 171.335 102.052 171.39 102.042 171.443C102.031 171.496 102.008 171.545 101.973 171.587C101.805 171.75 101.33 171.769 100.691 171.644C101.031 171.405 101.42 171.243 101.829 171.169Z" fill="#406EFF"/>
<path d="M100.488 171.779H100.527C100.882 171.567 101.411 170.818 101.329 170.438C101.314 170.37 101.277 170.308 101.223 170.262C101.169 170.217 101.102 170.191 101.031 170.188C100.968 170.18 100.904 170.186 100.843 170.206C100.782 170.226 100.727 170.26 100.681 170.304C100.325 170.65 100.402 171.673 100.407 171.716C100.408 171.73 100.412 171.742 100.42 171.753C100.428 171.764 100.438 171.773 100.45 171.779C100.462 171.784 100.476 171.784 100.488 171.779ZM100.969 170.337H101.007C101.132 170.337 101.156 170.414 101.171 170.462C101.228 170.731 100.849 171.298 100.556 171.548C100.507 171.154 100.588 170.754 100.786 170.409C100.811 170.386 100.841 170.367 100.873 170.355C100.905 170.342 100.939 170.336 100.974 170.337H100.969Z" fill="#406EFF"/>
<path d="M128.056 162.9L131.563 162.29L130.607 154.083L127.1 154.694L128.056 162.9Z" fill="#7F3E3B"/>
<path opacity="0.2" d="M127.1 154.698L130.612 154.088L131.102 158.316L127.59 158.926L127.1 154.698Z" fill="#260060"/>
<path d="M131.569 161.862L127.614 161.257C127.548 161.244 127.48 161.258 127.424 161.296C127.368 161.334 127.329 161.392 127.317 161.458L126.644 164.557C126.619 164.722 126.66 164.89 126.758 165.025C126.856 165.16 127.003 165.251 127.168 165.278C128.546 165.465 129.219 165.485 130.958 165.759C132.03 165.922 136.561 166.719 138.04 166.95C139.52 167.181 139.698 165.71 139.093 165.48C136.373 164.461 133.02 163.111 132.14 162.179C131.993 162.01 131.79 161.898 131.569 161.862Z" fill="#263238"/>
<path d="M112.534 81.0968C112.534 81.0968 123.584 106.931 125.819 116.896C128.274 127.807 132.434 157.043 132.434 157.043L126.006 158.163C126.006 158.163 120.087 130.853 116.675 120.326C112.971 108.906 98.1777 81.0968 98.1777 81.0968H112.534Z" fill="#263238"/>
<path opacity="0.3" d="M103.424 86.8046L103.164 90.7107C104.831 93.997 106.753 97.8311 108.632 101.723C109.468 97.8695 107.334 88.6111 103.424 86.8046Z" fill="#260060"/>
<path d="M106.159 81.0967C106.159 81.0967 106.096 108.315 105.52 118.515C104.885 129.681 101.719 166.681 101.719 166.681H95.1945C95.1945 166.681 95.3915 130.584 94.9975 119.529C94.5699 107.517 93.4648 81.0919 93.4648 81.0919L106.159 81.0967Z" fill="#263238"/>
<path d="M94.9349 166.739H101.983L102.372 164.264L94.5938 164.649L94.9349 166.739Z" fill="#406EFF"/>
<path opacity="0.3" d="M94.9349 166.739H101.983L102.372 164.264L94.5938 164.649L94.9349 166.739Z" fill="#260060"/>
<path d="M125.745 158.206L132.687 157L132.649 154.492L125.053 156.207L125.745 158.206Z" fill="#406EFF"/>
<path opacity="0.3" d="M125.745 158.206L132.687 157L132.649 154.492L125.053 156.207L125.745 158.206Z" fill="#260060"/>
<path d="M132.741 162.66C132.972 162.719 133.217 162.69 133.428 162.578C133.491 162.527 133.539 162.461 133.569 162.386C133.6 162.312 133.611 162.23 133.601 162.15C133.599 162.098 133.584 162.047 133.557 162.001C133.53 161.956 133.493 161.918 133.448 161.891C133.044 161.656 131.944 162.184 131.819 162.247C131.805 162.253 131.794 162.263 131.786 162.276C131.779 162.289 131.775 162.304 131.776 162.319C131.775 162.334 131.779 162.35 131.788 162.363C131.796 162.376 131.809 162.385 131.824 162.391C132.118 162.515 132.426 162.605 132.741 162.66ZM133.26 161.997C133.298 161.999 133.334 162.011 133.366 162.03C133.39 162.042 133.409 162.061 133.422 162.084C133.435 162.107 133.441 162.134 133.438 162.16C133.448 162.213 133.443 162.267 133.426 162.318C133.408 162.368 133.377 162.413 133.337 162.448C133.145 162.588 132.674 162.535 132.059 162.309C132.432 162.119 132.842 162.012 133.26 161.997Z" fill="#406EFF"/>
<path d="M131.844 162.395C131.858 162.4 131.873 162.4 131.888 162.395C132.267 162.242 132.906 161.588 132.882 161.194C132.878 161.123 132.85 161.056 132.803 161.003C132.756 160.95 132.692 160.914 132.623 160.901C132.562 160.884 132.498 160.88 132.435 160.891C132.373 160.902 132.314 160.927 132.262 160.964C131.854 161.252 131.782 162.275 131.782 162.319C131.78 162.332 131.782 162.345 131.788 162.357C131.794 162.369 131.804 162.379 131.815 162.386C131.824 162.392 131.834 162.396 131.844 162.395ZM132.541 161.041H132.579C132.699 161.074 132.719 161.137 132.724 161.189C132.724 161.463 132.281 161.963 131.95 162.15C131.963 161.753 132.105 161.37 132.354 161.06C132.408 161.031 132.472 161.024 132.531 161.041H132.541Z" fill="#406EFF"/>
<path d="M99.8012 71.209L102.722 70.4066L103.126 74.1014C103.126 74.1014 100.243 74.9662 99.5273 73.4527L99.8012 71.209Z" fill="#7F3E3B"/>
<path d="M105.375 70.9159L105.197 74.2455L103.126 74.1014L102.723 70.4066L105.375 70.9159Z" fill="#7F3E3B"/>
<path d="M154.094 158.163C138.748 155.852 127.092 127.168 127.092 93.9491C127.092 60.7302 138.748 32.0467 154.094 29.7357L168.397 27.5833V160.315L154.094 158.163Z" fill="#406EFF"/>
<path opacity="0.3" d="M154.094 158.163C138.748 155.852 127.092 127.168 127.092 93.9491C127.092 60.7302 138.748 32.0467 154.094 29.7357L168.397 27.5833V160.315L154.094 158.163Z" fill="#260060"/>
<path d="M168.396 160.315C182.239 160.315 193.461 130.602 193.461 93.9491C193.461 57.2963 182.239 27.5833 168.396 27.5833C154.552 27.5833 143.33 57.2963 143.33 93.9491C143.33 130.602 154.552 160.315 168.396 160.315Z" fill="#406EFF"/>
<path opacity="0.2" d="M173.039 61.0184C165.351 61.0184 159.158 75.7637 159.158 93.9539C159.158 112.144 165.371 126.885 173.039 126.885C180.707 126.885 186.919 112.144 186.919 93.9539C186.919 75.7637 180.707 61.0184 173.039 61.0184ZM184.089 93.9539C184.089 99.1861 183.244 103.943 181.86 107.512L177.853 93.6897L181.783 80.1551C183.224 83.7442 184.108 88.5968 184.108 93.9491L184.089 93.9539ZM175.638 73.914C177.334 73.914 178.905 75.0959 180.226 77.1282L176.637 89.5769L172.496 75.3553C173.318 74.4764 174.454 73.9569 175.657 73.9092L175.638 73.914ZM167.196 93.9539C167.196 87.1795 168.614 81.1977 170.781 77.5703L175.47 93.6897L170.713 110.179C168.594 106.547 167.216 100.632 167.216 93.9491L167.196 93.9539ZM175.638 113.994C175.023 113.96 174.42 113.804 173.866 113.535C173.312 113.267 172.817 112.89 172.409 112.428L176.657 97.788L180.361 110.587C179.016 112.745 177.401 113.989 175.657 113.989L175.638 113.994Z" fill="#FAFAFA"/>
<path opacity="0.4" d="M169.074 158.633C157.784 158.633 145.695 132.641 145.695 93.9492C145.695 55.2578 157.784 29.2649 169.074 29.2649C180.365 29.2649 192.458 55.2578 192.458 93.9492C192.458 132.641 180.37 158.633 169.074 158.633ZM169.074 29.7454C158.024 29.7454 146.176 55.5412 146.176 93.9492C146.176 132.357 157.995 158.153 169.074 158.153C180.154 158.153 191.978 132.352 191.978 93.9492C191.978 55.546 180.135 29.7454 169.074 29.7454Z" fill="#FAFAFA"/>
</svg>
